<?xml version="1.0" encoding="utf-8"?>
<!-- Generator: Adobe Illustrator 25.4.1, SVG Export Plug-In . SVG Version: 6.00 Build 0)  -->
<svg version="1.1" id="Layer_1" xmlns="http://www.w3.org/2000/svg" xmlns:xlink="http://www.w3.org/1999/xlink" x="0px" y="0px"
	 viewBox="0 0 305.3 305.5" style="enable-background:new 0 0 305.3 305.5;" xml:space="preserve">
<style type="text/css">
	.st0{fill:#1394CD;}
</style>
<path class="st0" d="M143.1,305.5c-5.6-0.8-11.2-1.4-16.8-2.4c-34.8-6.2-64-22.6-87.6-48.8c-20.7-23.1-33.6-50.2-37.4-81
	C-4.8,123,10.1,79.6,45.9,43.8c23.9-23.9,53-38.1,86.4-42.4c40.4-5.2,77.3,4.2,110.4,28c0.7,0.5,1.5,1,2.7,1.9c0-1.4,0-2.4,0-3.3
	c0-5.6-0.1-11.1,0.1-16.7c0.1-4.9,3.8-8.5,8.4-8.8c4.5-0.3,8.6,3.1,9.3,7.9c0.1,0.9,0.1,1.8,0.1,2.7c0,13,0,26,0,39.1
	c0,7.2-3.4,10.6-10.6,10.6c-13.4,0-26.8,0-40.3,0c-4.8,0-8.2-3-9-7.5c-0.7-4,1.6-8.1,5.4-9.6c1.5-0.6,3.3-0.8,4.9-0.8
	c6-0.1,12.1,0,19.1,0c-1.6-1.2-2.4-1.9-3.3-2.5c-27.3-18.9-57.6-26.8-90.6-23.7C80,24.1,30.2,70.3,20.1,128.6
	c-10,57.9,16.2,113.4,67.5,142.1c23,12.9,47.9,18.4,74.3,16.4c58.4-4.5,105.6-43.6,121-100.2c2.8-10.4,4.2-21,4.4-31.8
	c0.1-6.5,2.3-9.9,6.9-11.1c4.4-1.1,7.8,0.9,11.1,6.4c0,4,0,8,0,11.9c-0.5,3.7-0.9,7.5-1.4,11.2c-4.4,30.5-16.6,57.4-37.1,80.4
	c-23.5,26.4-52.8,42.9-87.6,49.2c-5.6,1-11.4,1.6-17,2.4C155.8,305.5,149.4,305.5,143.1,305.5z"/>
<path class="st0" d="M110.1,191.6c2,0,3,0,4.1,0c10.7,0,21.5,0,32.2,0c3.6,0,5.9,1.8,6.5,4.9c0.5,2.6-0.9,5.6-3.5,6.5
	c-1.3,0.4-2.7,0.5-4.1,0.5c-14.3,0-28.6,0-42.9,0c-1.9,0-3.8,0-5.9,0c-0.5-5.6-0.7-11.1,2.4-15.7c3.6-5.4,7.7-10.6,12.2-15.3
	c6.5-6.8,13.6-13.1,20.2-19.8c2.3-2.3,4.2-5.1,5.7-8c4.9-9.4-1.3-20.4-11.8-21.4c-11.2-1-18.3,5-19.1,16.2c-0.3,4.6-2.2,6.9-5.6,7.2
	c-3.7,0.3-6.3-2.2-6.5-6.2c-0.6-13.8,7.5-24.7,20.9-28.2c14.5-3.8,28.9,2.9,34,15.9c3.1,8,2.9,16-1.9,23.1
	c-3.9,5.9-8.7,11.3-13.6,16.4c-5.9,6.3-12.4,12-18.6,18.1C113.1,187.5,112,189.2,110.1,191.6z"/>
<path class="st0" d="M200.5,167.7c3.9,0,7.5,0,11,0c4.4,0,6.9,2.4,6.9,6.1c0,3.6-2.6,5.8-6.8,5.9c-3.4,0-6.8,0-10.1,0.1
	c-0.2,0-0.4,0.1-1,0.3c0,3.9,0,7.9,0,11.9c0,1.8,0,3.6,0,5.4c-0.1,3.8-2.4,6.2-5.8,6.2c-3.5,0.1-6-2.4-6.1-6.3
	c-0.1-4.8,0-9.5,0-14.3c0-1,0-2,0-3.3c-1.3,0-2.4,0-3.4,0c-8.5,0-17.1,0-25.6,0c-6,0-8.6-4.7-5.5-9.7c11.7-18.6,23.4-37.1,35.1-55.7
	c1.9-3,4.5-4,7.3-3.1c2.6,0.8,4,3.1,4,6.6c0,15.3,0,30.6,0,45.9C200.5,164.8,200.5,166,200.5,167.7z M188.3,138.8
	c-0.2-0.1-0.3-0.1-0.5-0.2c-6,9.5-12,19.1-18.2,28.8c6.6,0,12.6,0,18.7,0C188.3,157.7,188.3,148.3,188.3,138.8z"/>
<path class="st0" d="M51.9,155.6c0.1,3.4-2.6,6.1-5.9,6.1c-3.2,0-5.9-2.7-6-5.8c-0.1-3.3,2.7-6.1,6-6.1
	C49.2,149.8,51.8,152.3,51.9,155.6z"/>
<path class="st0" d="M153.6,56.8c-3.3-0.1-5.8-2.6-5.8-5.9c0-3.3,2.8-6.1,6.1-6c3.2,0.1,5.8,2.8,5.9,6
	C159.7,54.2,157,56.8,153.6,56.8z"/>
<path class="st0" d="M252.7,155.9c-0.1-3.4,2.6-6.1,5.9-6.1c3.2,0,5.9,2.6,6,5.8c0.1,3.3-2.7,6.1-6,6.1
	C255.3,161.7,252.7,159.1,252.7,155.9z"/>
<path class="st0" d="M153.8,254.6c3.3,0,5.9,2.6,5.9,5.8c0.1,3.3-2.8,6.1-6,6.1c-3.3,0-6-2.9-5.9-6.2
	C147.9,257.1,150.5,254.6,153.8,254.6z"/>
<path class="st0" d="M188.3,138.8c0,9.5,0,18.9,0,28.6c-6,0-12.1,0-18.7,0c6.2-9.8,12.2-19.3,18.2-28.8
	C188,138.7,188.2,138.7,188.3,138.8z"/>
</svg>
