<?xml version="1.0" encoding="utf-8"?>
<!-- Generator: Adobe Illustrator 25.4.1, SVG Export Plug-In . SVG Version: 6.00 Build 0)  -->
<svg version="1.1" id="Layer_1" xmlns="http://www.w3.org/2000/svg" xmlns:xlink="http://www.w3.org/1999/xlink" x="0px" y="0px"
	 viewBox="0 0 407.6 408.6" style="enable-background:new 0 0 407.6 408.6;" xml:space="preserve">
<style type="text/css">
	.st0{fill:#1394CD;}
</style>
<path class="st0" d="M366.6,408.6c-108.1,0-216.2,0-324.2,0c-0.6-0.2-1.2-0.6-1.8-0.7c-13.2-2.1-23.6-8.8-31.5-19.4
	C4,381.8,1.7,374.1,0,366.2C0,268.8,0,171.4,0,74c0.3-0.9,0.6-1.7,0.8-2.6C4,54.7,13.4,43,28.6,35.8c8.8-4.2,18.3-4.3,27.7-4.1
	c3.5,0.1,7.1,0,10.9,0c0-10.9,0-21.3,0-31.7c10.7,0,21.1,0,32,0c0,10.7,0,21.1,0,31.5c70.4,0,140.3,0,210.7,0c0-10.6,0-21,0-31.4
	c10.9,0,21.3,0,32,0c0,10.6,0,20.9,0,31.6c6.1,0,12-0.3,17.7,0.1c5.7,0.4,11.5,0.9,16.8,2.6c20.1,6.7,32.4,24.8,32.4,46.8
	c0,92.6,0,185.2,0,277.8c0,0.8,0,1.6,0,2.4c-0.6,15.7-7.1,28.4-19.7,37.9C382.5,404.4,374.7,406.8,366.6,408.6z M377,150.1
	c-115.3,0-230,0-345,0c0,1.7,0,3.2,0,4.6c0,67.6,0,135.2,0,202.8c0,13,6,19.1,19,19.1c102.3,0,204.7,0,307,0c13,0,19-6,19-19.1
	c0-67.6,0-135.2,0-202.8C377,153.3,377,151.9,377,150.1z M32,117.6c115.2,0,230,0,344.9,0c0-13.3,0.2-26.3-0.1-39.3
	c-0.2-7.3-5.9-13.6-13.3-14.3c-7.1-0.6-14.3-0.1-21.8-0.1c0,10.7,0,21.1,0,31.4c-10.9,0-21.3,0-32,0c0-10.7,0-21,0-31.3
	c-70.4,0-140.4,0-210.7,0c0,10.6,0,20.9,0,31.4c-10.7,0-21.1,0-32,0c0-10.7,0-21.1,0-31.6c-6.9,0-13.5-0.2-20,0.1
	c-8.2,0.4-14.7,6.8-14.9,14.9C31.8,91.5,32,104.4,32,117.6z"/>
<path class="st0" d="M60.9,215.1c0-10.6,0-20.9,0-31.5c10.5,0,20.9,0,31.6,0c0,10.5,0,20.9,0,31.5C81.9,215.1,71.6,215.1,60.9,215.1
	z"/>
<path class="st0" d="M156.3,215.1c-10.6,0-20.9,0-31.5,0c0-10.5,0-20.8,0-31.4c10.3,0,20.8,0,31.5,0
	C156.3,194,156.3,204.4,156.3,215.1z"/>
<path class="st0" d="M188.7,183.6c10.7,0,21,0,31.5,0c0,10.5,0,20.8,0,31.4c-10.4,0-20.8,0-31.5,0
	C188.7,204.7,188.7,194.2,188.7,183.6z"/>
<path class="st0" d="M284.1,183.7c0,10.6,0,20.9,0,31.5c-10.5,0-20.8,0-31.5,0c0-10.3,0-20.8,0-31.5
	C263,183.7,273.4,183.7,284.1,183.7z"/>
<path class="st0" d="M316.5,183.6c10.6,0,20.9,0,31.4,0c0,10.5,0,20.8,0,31.4c-10.3,0-20.7,0-31.4,0
	C316.5,204.7,316.5,194.3,316.5,183.6z"/>
<path class="st0" d="M60.9,278.9c0-10.6,0-20.9,0-31.4c10.5,0,20.8,0,31.5,0c0,10.3,0,20.7,0,31.4C82,278.9,71.6,278.9,60.9,278.9z"
	/>
<path class="st0" d="M124.9,247.4c10.6,0,20.9,0,31.4,0c0,10.5,0,20.8,0,31.4c-10.3,0-20.7,0-31.4,0
	C124.9,268.6,124.9,258.2,124.9,247.4z"/>
<path class="st0" d="M220.2,247.5c0,10.6,0,20.9,0,31.4c-10.5,0-20.8,0-31.5,0c0-10.3,0-20.7,0-31.4
	C199.1,247.5,209.5,247.5,220.2,247.5z"/>
<path class="st0" d="M284,279c-10.6,0-20.9,0-31.5,0c0-10.5,0-20.8,0-31.4c10.3,0,20.8,0,31.5,0C284,257.9,284,268.3,284,279z"/>
<path class="st0" d="M316.5,247.4c10.6,0,20.9,0,31.5,0c0,10.5,0,20.8,0,31.4c-10.3,0-20.8,0-31.5,0
	C316.5,268.6,316.5,258.2,316.5,247.4z"/>
<path class="st0" d="M92.5,311.4c0,10.6,0,20.9,0,31.4c-10.5,0-20.8,0-31.5,0c0-10.3,0-20.8,0-31.4
	C71.3,311.4,81.7,311.4,92.5,311.4z"/>
<path class="st0" d="M156.4,311.4c0,10.6,0,20.9,0,31.4c-10.5,0-20.8,0-31.5,0c0-10.3,0-20.7,0-31.4
	C135.2,311.4,145.6,311.4,156.4,311.4z"/>
<path class="st0" d="M220.1,343c-10.6,0-20.8,0-31.3,0c0-10.5,0-20.9,0-31.6c10.3,0,20.8,0,31.3,0C220.1,322,220.1,332.5,220.1,343z
	"/>
<path class="st0" d="M252.7,311.3c10.6,0,20.9,0,31.5,0c0,10.5,0,20.8,0,31.4c-10.3,0-20.8,0-31.5,0
	C252.7,332.5,252.7,322,252.7,311.3z"/>
</svg>
