<?xml version="1.0" encoding="utf-8"?>
<!-- Generator: Adobe Illustrator 25.4.1, SVG Export Plug-In . SVG Version: 6.00 Build 0)  -->
<svg version="1.1" id="Layer_1" xmlns="http://www.w3.org/2000/svg" xmlns:xlink="http://www.w3.org/1999/xlink" x="0px" y="0px"
	 viewBox="0 0 384.7 331.6" style="enable-background:new 0 0 384.7 331.6;" xml:space="preserve">
<style type="text/css">
	.st0{fill:#1394CD;}
</style>
<path class="st0" d="M0,85.6c1.9-1,3.7-2.7,5.6-3c3.1-0.4,5.1,1.5,5.5,4.8c0.2,1.2,0.1,2.5,0.1,3.7c0,64.2,0,128.5,0,192.7
	c0,5.5,0,5.5,5.3,5.5c78.1,0,156.2,0,234.4,0c1.2,0,2.5,0,4,0c0-4,0-7.6,0-11.8c-1.5,0-3.1,0-4.7,0c-72.9,0-145.7,0-218.6,0
	c-7.2,0-8.5-1.4-8.5-8.5c0-79.2,0-158.5,0-237.7c0-7,1.4-8.4,8.3-8.4c107.1,0,214.2,0,321.4,0c6.7,0,8.2,1.5,8.2,8.1
	c0,50,0,100,0,150c0,5.1-1.4,7-5,7.3c-3.3,0.2-5.6-1.5-6.1-4.7c-0.2-1.3-0.1-2.7-0.1-4.1c0-46.6,0-93.2,0-139.9c0-1.6,0-3.2,0-5.1
	c-105.1,0-210,0-315.1,0c0,77.2,0,154.2,0,231.5c73.5,0,146.9,0,220.5,0c0-8.1,0-16.1,0-24.6c-1.7,0-3.4,0.1-5.1,0
	c-8-0.6-13.1-5-12.7-12.8c0.4-7.5-1.6-12.9-7.3-17.9c-6.1-5.5-5.5-12.5-0.1-18.7c0.7-0.7,1.3-1.6,2.1-2.1c4.2-2.9,6-6.8,5.1-11.9
	c-0.2-0.8-0.1-1.7,0-2.6c0.3-8.6,4.9-14.1,13.4-13.7c7.3,0.4,12.3-1.8,17.2-7.2c5.5-6.1,12.5-5.7,18.7-0.3c1.3,1.1,2.6,2.4,3.6,3.8
	c2.3,3,5.2,4.1,8.9,3.6c1.1-0.2,2.2-0.2,3.4-0.1c9.7,0,15.3,5.2,14.7,14.8c-0.4,6.2,1.3,10.5,6,14.6c7.5,6.7,7.5,14.6-0.1,21.3
	c-4.7,4.2-6.4,8.4-5.8,14.7c1,10.3-4,15-14.4,14.8c-1.1,0-2.2,0-3.6,0c0,8.2,0,16.2,0,24.5c16.8,0,33.5,0,50.7,0c0-1.4,0-2.7,0-4
	c0-15.2,0-30.5,0-45.7c0-1.2-0.1-2.5,0.1-3.7c0.5-3.3,2.7-5.1,6-4.8c3.3,0.2,5,2,5.1,5.3c0.1,5.6,0,11.2,0,16.9c0,13.5,0,27,0,40.5
	c0,5.3-1.9,7.2-7.2,7.2c-16.7,0-33.5,0-50.2,0c-1.4,0-2.7,0-4.4,0c0,3.9,0,7.5,0,11.6c1.3,0.1,2.5,0.2,3.7,0.2c21.7,0,43.5,0,65.2,0
	c4.7,0,4.8-0.1,4.8-4.9c0-89.5,0-179,0.1-268.5c0-3.9-1.2-4.8-4.9-4.8c-117.2,0.1-234.5,0.1-351.7,0.1c-4.9,0-4.9,0-4.9,5
	c0,13.6,0,27.2,0,40.9c0,3-0.1,5.9-3.5,7.1C4.5,65.6,2,64.1,0,61.6C0,44.4,0,27.1,0,9.9C3.2,2.4,8.9,0,17,0
	c116.6,0.2,233.1,0.2,349.7,0c8.1,0,14.1,2.2,17.4,9.9c0,93.5,0,187,0,280.5c-2.8,7.8-8.6,10.5-16.6,10.4
	c-21.4-0.2-42.7-0.1-64.1-0.1c-1.4,0-2.9,0.1-4.6,0.2c0,8.4,0.1,16.4,0,24.3c-0.1,5.3-3.8,7.6-8.7,5.6c-3.5-1.5-7-3.4-10.6-4.8
	c-1.4-0.5-3.4-0.6-4.8-0.1c-3.7,1.4-7.2,3.4-10.9,4.9c-4.6,1.9-7.9-0.2-8.5-5.1c-0.2-1.5-0.1-3-0.1-4.5c0-6.7,0-13.4,0-20.6
	c-2,0-3.6,0-5.2,0c-77.8,0-155.6-0.1-233.4,0.1c-8.1,0-13.8-2.6-16.6-10.4C0,222.2,0,153.9,0,85.6z M277.1,242.7
	c1.8-2,3.5-3.7,4.9-5.6c4.1-5.5,9.5-7.8,16.4-6.9c1,0.1,2,0.1,3,0.2c4.3,0.1,5-0.3,4.4-4.7c-1.1-8.6,1.7-15.4,8.5-20.7
	c3.6-2.9,3.6-4-0.1-6.9c-6.7-5.3-9.5-11.9-8.5-20.4c0.6-4.7-0.1-5.4-4.9-4.9c-8.4,0.9-15.1-1.8-20.4-8.5c-2.9-3.8-4-3.8-6.9,0
	c-5.3,6.7-11.9,9.5-20.4,8.6c-4.9-0.5-5.4,0-4.9,4.8c0.9,8.6-1.9,15.3-8.8,20.7c-3.5,2.7-3.5,3.8,0.1,6.6c6.7,5.3,9.5,11.9,8.6,20.3
	c-0.5,5.1,0,5.3,5.1,5.1c0.9,0,1.7-0.1,2.6-0.2c6.3-0.5,11.6,1.3,15.5,6.4C273.2,238.6,275,240.5,277.1,242.7z M266.9,248.9
	c0,22.8,0,45.3,0,68.8c6.9-5.8,13.5-5.4,20.3-0.3c0-23.4,0-45.8,0-68.5C278.2,255.4,276.1,255.4,266.9,248.9z"/>
<path class="st0" d="M192.1,104.4c38.6,0,77.2,0,115.8,0c1.2,0,2.5-0.1,3.7,0.1c2.9,0.4,4.8,2.2,4.9,5.2c0.2,3.3-1.6,5.1-4.7,5.8
	c-1.2,0.3-2.5,0.1-3.7,0.1c-77.5,0-154.9,0-232.4,0c-1.4,0-2.8,0.1-4.1-0.2c-2.9-0.8-4.3-2.9-4.1-5.9c0.2-2.8,1.7-4.7,4.6-5.1
	c1.2-0.2,2.5-0.1,3.7-0.1C114.6,104.4,153.3,104.4,192.1,104.4z"/>
<path class="st0" d="M170.3,81.3c-31.4,0-62.7,0-94.1,0c-1.4,0-2.8,0-4.1-0.1c-2.9-0.4-4.4-2.3-4.5-5.1c-0.2-2.8,1-4.9,3.9-5.7
	c1.3-0.3,2.7-0.4,4.1-0.4c63,0,125.9,0,188.9,0c1.4,0,2.8,0,4.1,0.4c2.8,0.8,4,2.9,3.8,5.7c-0.2,2.8-1.6,4.7-4.6,5.1
	c-1.4,0.2-2.7,0.1-4.1,0.1C232.5,81.3,201.4,81.3,170.3,81.3z"/>
<path class="st0" d="M87.4,218.8c-1.9,6.3-3.8,12.3-5.7,18.4c-0.3,1.1-0.7,2.2-1.3,3.1c-1.9,2.8-4.4,3.6-7.5,2.2
	c-3.1-1.3-3.4-3.7-2.6-6.8c3.1-12.1,6.2-24.1,8.8-36.3c1.1-5.2,1-10.7,1.4-16c0.1-1.6,0.1-3.3,0.4-4.8c0.6-3.2,2.9-4.5,5.9-4.6
	c3-0.1,4.6,1.6,5,4.5c1.2,8,2,16.1,3.6,24.1c1.2,6,3.1,11.8,5.1,17.5c1.2,3.4,3.1,3.6,5.5,0.9c1.4-1.7,2.6-3.7,3.5-5.7
	c1.3-3,3.3-4.6,6.6-4.4c3.1,0.2,4,2.4,4.8,5c1.5,5.1,3.8,6.7,10.1,6.8c11.2,0.1,22.5,0,33.7,0c1.1,0,2.2,0,3.4,0c4,0.2,6.1,2,6,5.6
	c0,3.5-2,5.5-6.1,5.6c-7.2,0.2-14.5,0.1-21.7,0.1c-5.2,0-10.5,0-15.7-0.1c-5.8-0.1-11.5-1-15.7-5.5C102.1,238,96.4,236,87.4,218.8z"
	/>
<path class="st0" d="M140.6,138.6c21.4,0,42.7,0,64.1,0c1.5,0,3,0,4.5,0.2c2.8,0.5,4.4,2.3,4.5,5.1c0.1,3-1.4,5-4.4,5.6
	c-1.2,0.3-2.5,0.2-3.7,0.2c-43.4,0-86.7,0-130.1,0c-1.5,0-3,0-4.4-0.4c-2.6-0.8-4-3-3.4-5.5c0.5-1.9,2.1-3.8,3.7-4.9
	c1.1-0.8,3.1-0.4,4.8-0.4C97.7,138.6,119.1,138.6,140.6,138.6z"/>
<path class="st0" d="M277,223.6c-12,0-21.9-10-21.9-22c0-12,9.9-21.9,21.9-22c12.1-0.1,22.3,10.1,22.1,22.2
	C298.9,213.8,288.9,223.6,277,223.6z M277.2,212.3c5.8-0.1,10.7-5.1,10.6-10.9c-0.1-5.8-5.1-10.7-10.9-10.6
	c-5.8,0.1-10.7,5.1-10.6,10.9C266.4,207.5,271.4,212.4,277.2,212.3z"/>
</svg>
