<?xml version="1.0" encoding="utf-8"?>
<!-- Generator: Adobe Illustrator 25.4.1, SVG Export Plug-In . SVG Version: 6.00 Build 0)  -->
<svg version="1.1" id="Layer_1" xmlns="http://www.w3.org/2000/svg" xmlns:xlink="http://www.w3.org/1999/xlink" x="0px" y="0px"
	 viewBox="0 0 295.4 336" style="enable-background:new 0 0 295.4 336;" xml:space="preserve">
<style type="text/css">
	.st0{fill:#1394CD;}
</style>
<path class="st0" d="M135.7,188.8c-4.3,2.5-8.1,4.6-11.8,6.8c-13.4,7.7-26.8,15.5-40.3,23.2c-2.3,1.3-3.4,2.9-4,5.4
	c-4.3,16.4-8.7,32.8-13.1,49.2c-1.6,6-6.1,9.5-11.9,9.5c-5.5,0-10.1-3.5-11.4-9c-0.5-2-0.4-4.3,0.1-6.2c2.3-9.1,4.7-18.1,7.1-27.2
	c0.2-0.7,0.3-1.4,0.6-2.8c-7.9,4.6-15.4,8.8-22.8,13.1c-3.2,1.9-6.4,3.8-9.7,5.6c-6,3.2-13,1.3-16.3-4.4c-3.4-5.8-1.5-12.9,4.6-16.5
	c9.4-5.5,18.8-10.9,28.2-16.3c1.1-0.7,2.2-1.4,4.1-2.5c-10.3-2.7-19.8-5.2-29.2-7.8c-7.3-2-11.2-8.1-9.5-14.6
	c1.8-6.9,8.1-10.5,15.4-8.6c16.8,4.4,33.5,9,50.3,13.3c1.3,0.3,3.1,0.3,4.2-0.3c17.6-10,35.1-20.1,53-30.5c-1-0.7-1.7-1.4-2.5-1.8
	c-16.5-9.6-33.1-19.2-49.7-28.6c-1.5-0.9-3.8-1.1-5.5-0.7c-16.4,4.2-32.8,8.7-49.2,13c-7.9,2.1-14.3-1.3-16.1-8.5
	c-1.7-6.6,2.4-12.6,9.9-14.7c8.6-2.3,17.1-4.6,25.7-6.9c0.8-0.2,1.6-0.6,2.9-1c-10.7-6.2-21.1-12-31.2-18.1
	c-2.3-1.4-4.4-3.4-5.7-5.6c-2.7-4.5-1.5-10.1,2.2-13.8c3.9-3.9,9.4-4.7,14.5-1.8C28,85,37.2,90.4,46.5,95.8c1.3,0.7,2.6,1.5,4.6,2.6
	c-1.2-4.7-2.3-8.9-3.4-13c-1.4-5.4-3-10.8-4.4-16.3c-1.9-7.4,1.6-13.9,8.3-15.6c6.7-1.7,12.9,2.3,14.9,9.7
	c4.3,16.1,8.7,32.3,12.9,48.5c0.7,2.8,2.1,4.5,4.5,5.9c17,9.7,34,19.5,51.3,29.5c0.1-1.1,0.3-1.8,0.3-2.6c0-19.4,0.1-38.8-0.1-58.1
	c0-1.6-1-3.6-2.1-4.7C121.4,69.2,109.1,57.1,97,44.8c-7-7-4.1-18.1,5.2-20.5c4.7-1.2,8.6,0.4,11.9,3.7c6.1,6.1,12.2,12.2,18.3,18.3
	c0.9,0.9,1.8,1.7,3.1,2.9c0.1-1.5,0.2-2.6,0.2-3.6c0-11,0-22,0-33c0-7.8,4.8-12.8,12.1-12.7c7.2,0.1,11.8,4.9,11.9,12.6
	c0,12,0,24,0,36.6c1.1-0.9,1.8-1.3,2.5-2c6.3-6.3,12.5-12.6,18.8-18.8c5.5-5.5,12.7-5.9,17.7-1c5.1,5,4.9,12.3-0.7,18
	c-11.9,12-23.8,23.9-35.8,35.8c-1.7,1.7-2.5,3.4-2.5,5.8c0.1,18.8,0.1,37.5,0.1,56.3c0,1.1,0,2.2,0,3.8c1.4-0.7,2.5-1.2,3.6-1.8
	c15.9-9.2,31.8-18.4,47.7-27.5c2.7-1.5,4.2-3.4,5-6.4c4.2-16.2,8.5-32.3,12.9-48.5c1.7-6.2,6.2-9.8,12.1-9.7
	c5.5,0.1,10.2,3.7,11.3,9.2c0.4,2,0.3,4.3-0.2,6.2c-2.2,9-4.7,17.9-7,26.8c-0.2,0.8-0.3,1.6-0.6,2.9c11-6.4,21.6-12.5,32.2-18.6
	c4.1-2.3,8.3-2.8,12.4,0c4.2,2.8,6.1,6.8,5.8,11.9c-0.3,4.5-3.1,7.2-6.7,9.3c-9.2,5.3-18.4,10.6-27.6,15.9c-1.1,0.7-2.3,1.3-4.2,2.5
	c8.9,2.4,17,4.6,25,6.8c1.6,0.4,3.1,0.8,4.7,1.3c7,2.1,10.6,8.1,8.9,14.6c-1.8,6.7-8.1,10.3-15.2,8.5c-13.2-3.5-26.5-6.5-39.4-10.7
	c-9.4-3.1-16.9-2.5-25.4,3.1c-13.1,8.7-27.1,15.9-40.7,23.8c-0.6,0.4-1.2,0.8-2.1,1.4c1.3,0.9,2.3,1.6,3.3,2.1
	c16.1,9.3,32.2,18.7,48.4,27.8c1.7,1,4.3,1.3,6.2,0.8c16.3-4.2,32.6-8.6,48.9-12.9c7.8-2.1,14.1,1.2,16,8.1c1.9,6.8-2,12.9-9.8,15
	c-8.5,2.4-17.1,4.6-25.7,6.9c-0.7,0.2-1.4,0.4-2.7,0.9c1.5,0.9,2.4,1.6,3.4,2.2c9.6,5.6,19.3,11,28.8,16.7c6.7,4,7.9,12.1,3,18
	c-4,4.8-9.6,5.7-15.5,2.4c-9.5-5.4-18.8-10.8-28.3-16.3c-1.1-0.6-2.2-1.2-3.9-2.2c1.5,5.7,2.8,10.8,4.2,15.9
	c1.2,4.6,2.5,9.1,3.7,13.7c1.7,7-1.7,13.3-8.1,15.1c-6.5,1.9-13.1-1.9-15-8.9c-4.4-16.3-8.8-32.5-13-48.8c-0.8-3-2.2-4.9-5-6.4
	c-16.3-9.2-32.5-18.6-48.7-28c-0.6-0.4-1.3-0.7-2.3-1.2c-0.1,1.2-0.3,2.1-0.3,3c0,19.1-0.1,38.3,0.1,57.4c0,1.7,1,3.9,2.2,5.1
	c12.1,12.3,24.4,24.4,36.5,36.7c6.9,7,4,18.1-5.3,20.4c-4.5,1.1-8.4-0.3-11.6-3.5c-6.2-6.2-12.4-12.4-18.6-18.6
	c-0.9-0.9-1.8-1.6-3.3-3c0,2.9,0,5.1,0,7.3c0,9.6,0,19.3,0,28.9c0,7.9-5,13.3-12.1,13.3c-6.9,0-11.9-5.4-11.9-13.1
	c0-10.6,0-21.3,0-31.9c0-1.2,0-2.4,0-4.3c-1.3,1.1-2.1,1.8-2.9,2.5c-6.2,6.2-12.4,12.4-18.6,18.5c-5.5,5.4-12.8,5.7-17.7,0.8
	c-5-5-4.8-12.2,0.7-17.7c11.9-12,23.8-23.9,35.8-35.8c2-1.9,2.7-3.9,2.6-6.5c-0.1-18.5-0.1-37-0.1-55.5
	C135.7,191.8,135.7,190.6,135.7,188.8z"/>
</svg>
