<?xml version="1.0" encoding="utf-8"?>
<!-- Generator: Adobe Illustrator 25.4.1, SVG Export Plug-In . SVG Version: 6.00 Build 0)  -->
<svg version="1.1" id="Layer_1" xmlns="http://www.w3.org/2000/svg" xmlns:xlink="http://www.w3.org/1999/xlink" x="0px" y="0px"
	 viewBox="0 0 382.2 384.4" style="enable-background:new 0 0 382.2 384.4;" xml:space="preserve">
<style type="text/css">
	.st0{fill:#1394CD;}
</style>
<path class="st0" d="M382.2,198c-6,12.7-16.4,22.1-25,32.7c-14.5,17.9-29.6,35.3-44.2,53.1c-13.6,16.5-31.1,24.4-52.2,24.5
	c-32.2,0.2-64.5,0.3-96.7-0.1c-11.1-0.1-18,6.1-24.7,13.2c-0.5,0.5-0.5,1.8-0.3,2.7c1.7,8.8-0.6,16.2-7.1,22.4
	c-11.3,11-22.5,22.2-33.8,33.3c-4.8,4.7-8.5,4.7-13.2,0C57.8,352.4,30.6,325,3.4,297.6c-4.5-4.5-4.5-8.4-0.1-12.9
	c11.2-11.3,22.5-22.6,33.7-33.9c5.1-5.1,11.2-7.6,18.5-7.3c1.1,0,2.9-0.9,3.4-1.8c24.8-43.5,79-54.2,118.1-39.2c1.9,0.7,4.1,1,6.2,1
	c25.5,0.1,51.1,0.2,76.6,0c10.4-0.1,19.4,2.8,27.6,12.3c0.6-1.4,0.9-2.8,1.7-3.7c13.8-14.3,27.8-28.6,41.6-42.9
	c16.7-17.2,41.8-12.3,50.9,10c0.1,0.3,0.4,0.6,0.6,0.9C382.2,186,382.2,192,382.2,198z M129.7,309.6c0.7-0.6,1.6-1.3,2.3-2.1
	c9.4-10.4,21-14.4,35-14.2c30.9,0.5,61.8,0.2,92.6,0.1c14.8,0,28.5-4.1,38.3-15.4c22.6-26.2,44.6-52.9,66.7-79.5
	c5.4-6.5,4.6-15.5-1.5-20.8c-6-5.4-15-5-20.9,1.1c-15.9,16.3-31.8,32.6-47.6,49c-0.8,0.9-1.6,2.3-1.6,3.5
	c-0.2,19.8-12.5,32.2-32.2,32.3c-18.8,0-37.6,0-56.4,0c-1.6,0-3.3-0.1-4.8-0.5c-3.2-0.9-5.3-4.1-5.1-7.4c0.2-3.4,2.6-6.2,5.9-6.8
	c1.6-0.3,3.2-0.3,4.8-0.3c18.4,0,36.9,0,55.3,0c1.9,0,3.8-0.1,5.6-0.4c7.7-1.4,13-9.2,11.6-17c-1.5-8.1-7.4-12.6-16.8-12.6
	c-26.6,0-53.3,0-79.9-0.1c-2.7,0-5.5-0.4-8-1.4c-23.2-8.9-46.1-8-68.6,2.1c-14.9,6.7-26,17.7-33.5,31.8
	C90.8,270.6,110.2,290,129.7,309.6z M93.3,365.4c9-9.5,18.4-19.4,27.9-29.3c4.6-4.8,4.7-8.5,0-13.2c-20.3-20.3-40.7-40.7-61-61
	c-4.7-4.7-8.3-4.6-13.1,0.1c-9,9-17.9,18-26.9,27c-0.7,0.7-1.3,1.4-2.2,2.5C42.7,315.8,67.4,340,93.3,365.4z"/>
<path class="st0" d="M230.5,0c4.6,0.9,9.3,1.7,13.8,2.9c38.1,10.3,62.7,44.7,60.9,84.8c-1.7,36.9-30.6,69.1-68,75.8
	c-45.9,8.1-89.8-24.2-95.7-70.6c-5.8-45.5,26.1-86.5,71.6-92.2c0.8-0.1,1.7-0.4,2.5-0.7C220.6,0,225.5,0,230.5,0z M222.8,149.6
	c37.1,0.1,67.4-29.8,67.5-66.9c0.2-37.2-29.8-67.6-66.7-67.7c-37.4-0.2-67.8,29.8-67.9,66.9C155.6,119.3,185.5,149.5,222.8,149.6z"
	/>
<path class="st0" d="M178.3,254.9c-0.1,4.1-3.4,7.3-7.4,7.3c-4.1,0-7.6-3.6-7.5-7.7c0.1-4.1,3.7-7.4,7.9-7.2
	C175.3,247.4,178.4,250.7,178.3,254.9z"/>
<path class="st0" d="M229,45.3c3.8,2.6,7.3,4.7,10.4,7.3c3.6,3,3.8,7.4,1,10.6c-2.7,3.2-7,3.4-10.7,0.7c-1.8-1.3-3.6-2.6-5.6-3.5
	c-2.9-1.3-5.7-0.4-7.9,1.8c-2.1,2.1-2.8,4.7-1.7,7.6c1.1,3,3.2,4.6,6.4,5c2.5,0.3,5,0.5,7.3,1.2c8.6,2.6,14.8,10.3,15.7,19
	c0.9,9.1-3.6,17.9-11.8,22c-2.5,1.3-3.4,2.7-3.1,5.4c0.2,1.8,0.2,3.7,0,5.6c-0.4,4-3.6,6.7-7.7,6.6c-3.8-0.1-7.5-2.9-7-6.8
	c0.8-6.7-1.4-10.8-7.6-13.4c-2.6-1.1-4.6-3.8-6.5-6.1c-2.5-3.1-2-7.2,0.8-9.8c2.9-2.8,7-2.8,10.2-0.1c2,1.7,3.8,3.7,6,5
	c3,1.8,6.2,1.9,9.1-0.4c2.5-2.1,3.5-4.8,2.4-8c-1.2-3.5-3.8-5-7.4-5.3c-11.7-1-19.5-7.5-21.7-18.1c-2.1-9.9,2.7-19.2,12.6-24.7
	c0.9-0.5,1.7-1.9,1.9-3c0.3-1.8,0.1-3.7,0.1-5.6c0.1-5,3.2-8.4,7.6-8.4c4.3,0.1,7.3,3.4,7.4,8.2C229.1,40.7,229,43.4,229,45.3z"/>
</svg>
