<?xml version="1.0" encoding="utf-8"?>
<!-- Generator: Adobe Illustrator 25.4.1, SVG Export Plug-In . SVG Version: 6.00 Build 0)  -->
<svg version="1.1" id="Layer_1" xmlns="http://www.w3.org/2000/svg" xmlns:xlink="http://www.w3.org/1999/xlink" x="0px" y="0px"
	 viewBox="0 0 36.1 36.1" style="enable-background:new 0 0 36.1 36.1;" xml:space="preserve">
<style type="text/css">
	.st0{fill:#E21E26;}
</style>
<path class="st0" d="M36.1,18.4c0,0.1-0.1,0.1-0.1,0.2c-0.3,0.8-0.9,1.2-1.7,1.2c-0.9,0-1.9,0-2.8,0c-1,0-1.8-0.8-1.8-1.8
	s0.8-1.7,1.8-1.7c0.9,0,1.8,0,2.7,0s1.5,0.4,1.8,1.3c0,0,0,0.1,0.1,0.1C36.1,17.9,36.1,18.1,36.1,18.4z"/>
<path class="st0" d="M17.7,36.1c-0.1,0-0.1-0.1-0.2-0.1c-0.8-0.3-1.2-0.9-1.2-1.7c0-0.9,0-1.9,0-2.8c0-1,0.8-1.8,1.8-1.8
	s1.7,0.8,1.7,1.8c0,0.9,0,1.8,0,2.7s-0.4,1.5-1.3,1.8c0,0-0.1,0-0.1,0.1C18.1,36.1,17.9,36.1,17.7,36.1z"/>
<path class="st0" d="M18,27.1c-5,0-9-4-9-9s4.1-9.1,9-9c5,0,9,4.1,9,9S23,27.1,18,27.1z"/>
<path class="st0" d="M6.6,31.4C5.8,31.3,5.3,31,5,30.3c-0.3-0.6-0.3-1.3,0.2-1.8c0.7-0.8,1.5-1.6,2.3-2.3c0.7-0.6,1.7-0.5,2.3,0.1
	s0.7,1.6,0.1,2.3c-0.7,0.8-1.5,1.6-2.3,2.3C7.3,31.1,6.9,31.2,6.6,31.4z"/>
<path class="st0" d="M6.5,4.8c0.5,0,1,0.2,1.3,0.5C8.4,6,9.1,6.6,9.7,7.2c0.7,0.8,0.7,1.8,0,2.5s-1.7,0.7-2.5,0
	c-0.7-0.6-1.3-1.3-2-2C4.8,7.2,4.6,6.6,4.9,5.8C5.2,5.1,5.8,4.8,6.5,4.8z"/>
<path class="st0" d="M31.3,6.5c0,0.5-0.2,0.9-0.6,1.3c-0.6,0.6-1.3,1.3-1.9,1.9c-0.8,0.7-1.8,0.8-2.6,0C25.6,9,25.6,8,26.3,7.2
	c0.6-0.6,1.3-1.3,1.9-1.9s1.2-0.7,2-0.4C30.9,5.2,31.3,5.8,31.3,6.5z"/>
<path class="st0" d="M29.5,31.3c-0.5,0-0.9-0.2-1.3-0.5c-0.6-0.6-1.3-1.3-1.9-1.9c-0.7-0.8-0.7-1.8,0-2.5s1.8-0.7,2.5,0
	c0.7,0.6,1.3,1.3,1.9,1.9c0.5,0.6,0.7,1.2,0.4,1.9C30.8,30.9,30.3,31.3,29.5,31.3z"/>
<path class="st0" d="M19.8,3.2c0,0.5,0,0.9,0,1.4c0,1-0.8,1.8-1.8,1.8s-1.7-0.8-1.7-1.8c0-0.9,0-1.9,0-2.8c0-1,0.8-1.8,1.8-1.8
	s1.7,0.8,1.7,1.8C19.8,2.2,19.8,2.7,19.8,3.2z"/>
<path class="st0" d="M3.2,16.3c0.5,0,0.9,0,1.4,0c1,0,1.8,0.8,1.8,1.7c0,1-0.8,1.8-1.8,1.8c-0.9,0-1.8,0-2.7,0C0.8,19.8,0,19,0,18
	s0.8-1.8,1.8-1.8C2.3,16.3,2.7,16.3,3.2,16.3z"/>
</svg>
