<?xml version="1.0" encoding="utf-8"?>
<!-- Generator: Adobe Illustrator 25.4.1, SVG Export Plug-In . SVG Version: 6.00 Build 0)  -->
<svg version="1.1" id="Layer_1" xmlns="http://www.w3.org/2000/svg" xmlns:xlink="http://www.w3.org/1999/xlink" x="0px" y="0px"
	 viewBox="0 0 397.8 113.3" style="enable-background:new 0 0 397.8 113.3;" xml:space="preserve">
<style type="text/css">
	.st0{clip-path:url(#SVGID_00000143593750037638483590000018072553833391670938_);fill:#0294CC;}
	.st1{clip-path:url(#SVGID_00000143593750037638483590000018072553833391670938_);fill:#E01F26;}
	.st2{clip-path:url(#SVGID_00000143593750037638483590000018072553833391670938_);fill:#0E142D;}
</style>
<g>
	<defs>
		<rect id="SVGID_1_" x="-51.4" y="-94" width="500" height="300"/>
	</defs>
	<clipPath id="SVGID_00000099622882299471983790000017022544194134546842_">
		<use xlink:href="#SVGID_1_"  style="overflow:visible;"/>
	</clipPath>
	<path style="clip-path:url(#SVGID_00000099622882299471983790000017022544194134546842_);fill:#0294CC;" d="M44,78v-3.5L41.5,72
		l2.5-2.5v-3.5h3.5l2.5-2.5l2.3,2.3c0.5-0.8,1-1.6,1.5-2.3h-0.2l-2.3-2.3v-0.4l5.1-5.1c0.5-0.5,0.5-1.3,0-1.8s-1.3-0.5-1.8,0
		l-3.3,3.3v-2.3l8.4-8.4c0.5-0.5,0.5-1.3,0-1.8c-0.5-0.5-1.3-0.5-1.8,0l-6.6,6.6V40.6h3.4c0.7,0,1.3-0.6,1.3-1.3
		c0-0.7-0.6-1.3-1.3-1.3h-3.4v-3.3c0-0.7-0.6-1.3-1.3-1.3c-0.7,0-1.3,0.6-1.3,1.3v3.3h-3.4c-0.7,0-1.3,0.6-1.3,1.3
		c0,0.7,0.6,1.3,1.3,1.3h3.4v10.6l-6.6-6.6c-0.5-0.5-1.3-0.5-1.8,0c-0.5,0.5-0.5,1.3,0,1.8l8.4,8.4v2.3l-3.3-3.3
		c-0.5-0.5-1.3-0.5-1.8,0c-0.5,0.5-0.5,1.3,0,1.8l5.1,5.1v0.4l-2.3,2.3h-3.2l-4.4-4.4V47c0-0.7-0.6-1.3-1.3-1.3
		c-0.7,0-1.3,0.6-1.3,1.3v9.4l-7.5-7.5l2.4-2.4c0.5-0.5,0.5-1.3,0-1.8c-0.5-0.5-1.3-0.5-1.8,0l-2.4,2.4l-2.3-2.3
		c-0.5-0.5-1.3-0.5-1.8,0c-0.5,0.5-0.5,1.3,0,1.8l2.3,2.3l-2.4,2.4c-0.5,0.5-0.5,1.3,0,1.8c0.2,0.2,0.6,0.4,0.9,0.4
		c0.3,0,0.7-0.1,0.9-0.4l2.4-2.4l7.5,7.5h-9.4c-0.7,0-1.3,0.6-1.3,1.3c0,0.7,0.6,1.3,1.3,1.3H37l4.4,4.4v3.2l-2.3,2.3h-0.4l-5.1-5.1
		c-0.5-0.5-1.3-0.5-1.8,0c-0.5,0.5-0.5,1.3,0,1.8l3.3,3.3h-2.3l-8.4-8.4c-0.5-0.5-1.3-0.5-1.8,0c-0.5,0.5-0.5,1.3,0,1.8l6.6,6.6
		H18.7v-3.4c0-0.7-0.6-1.3-1.3-1.3s-1.3,0.6-1.3,1.3v3.4h-3.3c-0.7,0-1.3,0.6-1.3,1.3c0,0.7,0.6,1.3,1.3,1.3h3.3v3.4
		c0,0.7,0.6,1.3,1.3,1.3s1.3-0.6,1.3-1.3v-3.4h10.6l-6.6,6.6c-0.5,0.5-0.5,1.3,0,1.8c0.2,0.2,0.6,0.4,0.9,0.4c0.3,0,0.7-0.1,0.9-0.4
		l8.4-8.4h2.3l-3.3,3.3c-0.5,0.5-0.5,1.3,0,1.8c0.2,0.2,0.6,0.4,0.9,0.4c0.3,0,0.7-0.1,0.9-0.4l5.1-5.1h0.4l2.3,2.3v3.2L37,83.2
		H25.1c-0.7,0-1.3,0.6-1.3,1.3c0,0.7,0.6,1.3,1.3,1.3h9.4l-7.5,7.5l-2.4-2.4c-0.5-0.5-1.3-0.5-1.8,0c-0.5,0.5-0.5,1.3,0,1.8l2.4,2.4
		l-2.3,2.3c-0.5,0.5-0.5,1.3,0,1.8c0.2,0.2,0.6,0.4,0.9,0.4c0.3,0,0.7-0.1,0.9-0.4l2.3-2.3l2.4,2.4c0.2,0.2,0.6,0.4,0.9,0.4
		c0.3,0,0.7-0.1,0.9-0.4c0.5-0.5,0.5-1.3,0-1.8L28.7,95l7.5-7.5v9.4c0,0.7,0.6,1.3,1.3,1.3c0.7,0,1.3-0.6,1.3-1.3V85l4.4-4.4h2.8
		c0.2-0.8,0.4-1.7,0.7-2.6H44z"/>
	<path style="clip-path:url(#SVGID_00000099622882299471983790000017022544194134546842_);fill:#E01F26;" d="M90,69.7
		c1.3-8.8,0-20.6,0-20.6s4.8,8.6,4.7,17.7c0,0,0,0.1,0,0.1c0,0.2,0,0.4,0,0.6c0,0.1,0,0.1,0,0.2c0,0.2,0,0.4,0,0.5
		c0,0.1,0,0.1,0,0.2c0,0.2,0,0.3,0,0.5c0,0.1,0,0.1,0,0.2c0,0.2,0,0.3-0.1,0.5c0,0.1,0,0.1,0,0.2c0,0.2,0,0.3-0.1,0.5
		c0,0.1,0,0.1,0,0.2c0,0.2-0.1,0.3-0.1,0.5c0,0.1,0,0.1,0,0.2c0,0.2-0.1,0.4-0.1,0.5c0,0,0,0.1,0,0.1c-0.1,0.6-0.3,1.2-0.5,1.8
		c0,0.1-0.1,0.2-0.1,0.2c-0.1,0.1-0.1,0.3-0.2,0.4c0,0.1-0.1,0.2-0.1,0.3c-0.1,0.1-0.1,0.3-0.2,0.4c0,0.1-0.1,0.2-0.1,0.3
		c-0.1,0.1-0.1,0.2-0.2,0.4c-0.1,0.1-0.1,0.2-0.2,0.3c-0.1,0.1-0.1,0.2-0.2,0.4c-0.1,0.1-0.1,0.2-0.2,0.3c-0.1,0.1-0.1,0.2-0.2,0.3
		c-0.1,0.1-0.1,0.2-0.2,0.3c-0.1,0.1-0.1,0.2-0.2,0.3c-0.1,0.1-0.2,0.2-0.2,0.3c-0.1,0.1-0.2,0.2-0.2,0.3c-0.1,0.1-0.2,0.2-0.3,0.3
		c-0.1,0.1-0.2,0.2-0.2,0.3c-0.1,0.1-0.2,0.3-0.3,0.4c-0.1,0.1-0.1,0.2-0.2,0.2c-0.2,0.2-0.4,0.4-0.6,0.6c-0.1,0.1-0.1,0.1-0.2,0.2
		c-0.1,0.1-0.3,0.3-0.4,0.4c-0.1,0.1-0.2,0.2-0.3,0.2c-0.1,0.1-0.3,0.2-0.4,0.3c-0.1,0.1-0.2,0.2-0.3,0.2c-0.1,0.1-0.3,0.2-0.4,0.3
		C87.2,81.9,87.1,82,87,82c-0.1,0.1-0.3,0.2-0.4,0.3c-0.1,0.1-0.2,0.2-0.4,0.2c-0.2,0.1-0.3,0.2-0.5,0.3c-0.1,0.1-0.3,0.1-0.4,0.2
		c-0.2,0.1-0.3,0.2-0.5,0.3c-0.1,0.1-0.3,0.1-0.4,0.2c-0.2,0.1-0.4,0.2-0.5,0.3c-0.1,0.1-0.3,0.1-0.4,0.2c-0.2,0.1-0.4,0.2-0.6,0.3
		c-0.1,0.1-0.3,0.1-0.4,0.2c-0.2,0.1-0.5,0.2-0.7,0.3c-0.1,0-0.2,0.1-0.4,0.1c-0.4,0.1-0.7,0.3-1.1,0.4C80.3,85.3,88.8,78.5,90,69.7
		 M75.9,87.2c-6.3-12.6,32-27.5-6.3-87.4c0,0,9.2,33.6-11.8,58.3c-18.2,21.4-16.4,48.1,2.4,51.8c0.9,0.2,1.7,0.3,2.6,0.4
		c0,0-11.4-5.1-10.1-18.1c1.3-13,7.6-15.2,10.1-23.4c0,0-3.6,18.9,0,26.3c2.5,5,10.9,7.1,15.1,1.7c0,0-0.1,5.4-2.6,9.6
		c-0.2,0.3-0.4,0.6-0.6,0.9c0,0,0,0,0,0c-0.2,0.3-0.4,0.5-0.6,0.8c0,0,0,0-0.1,0.1c-0.2,0.2-0.5,0.5-0.7,0.7c0,0,0,0-0.1,0.1
		c-0.3,0.2-0.5,0.4-0.8,0.6c13.4-3.3,23.6-15.8,23.6-25.7C96.1,84,82.2,99.8,75.9,87.2"/>
	<path style="clip-path:url(#SVGID_00000099622882299471983790000017022544194134546842_);fill:#0294CC;" d="M2.5,65.8
		c0-25.3,20.6-46,46-46c5.3,0,10.4,0.9,15.2,2.6l-0.2-1.6c-4.7-1.6-9.8-2.4-15-2.4C22.3,18.4,1,39.7,1,65.8
		c0,21.8,14.8,40.2,34.9,45.7l0.8-1.3C17,105.1,2.5,87.1,2.5,65.8"/>
	<polygon style="clip-path:url(#SVGID_00000099622882299471983790000017022544194134546842_);fill:#0E142D;" points="127.8,43.3 
		113.9,43.3 113.9,35.1 151.8,35.1 151.8,43.3 137.9,43.3 137.9,78.5 127.8,78.5 	"/>
	<path style="clip-path:url(#SVGID_00000099622882299471983790000017022544194134546842_);fill:#0E142D;" d="M185.7,64.6h-25.3
		c0.5,2.1,1.5,3.7,3.2,4.9c1.7,1.2,3.8,1.8,6.3,1.8c1.7,0,3.3-0.3,4.6-0.8c1.3-0.5,2.6-1.3,3.8-2.5l5.2,5.6
		c-3.1,3.6-7.7,5.4-13.8,5.4c-3.8,0-7.1-0.7-10-2.2c-2.9-1.5-5.1-3.5-6.7-6.1c-1.6-2.6-2.4-5.6-2.4-8.9c0-3.3,0.8-6.2,2.3-8.8
		c1.6-2.6,3.7-4.7,6.4-6.1c2.7-1.5,5.7-2.2,9.1-2.2c3.3,0,6.2,0.7,8.9,2.1c2.6,1.4,4.7,3.4,6.2,6.1c1.5,2.6,2.3,5.7,2.3,9.2
		C185.8,62.1,185.8,62.9,185.7,64.6 M163,53.8c-1.5,1.2-2.4,2.9-2.7,5.1h16.5c-0.3-2.1-1.2-3.8-2.7-5.1c-1.5-1.3-3.3-1.9-5.5-1.9
		C166.3,52,164.5,52.6,163,53.8"/>
	<path style="clip-path:url(#SVGID_00000099622882299471983790000017022544194134546842_);fill:#0E142D;" d="M206.2,45.9
		c2-0.8,4.2-1.2,6.8-1.2v8.9c-1.1-0.1-1.8-0.1-2.2-0.1c-2.8,0-4.9,0.8-6.5,2.3c-1.6,1.6-2.4,3.9-2.4,7v15.8h-9.7V45.1h9.3v4.4
		C202.7,47.9,204.3,46.7,206.2,45.9"/>
	<path style="clip-path:url(#SVGID_00000099622882299471983790000017022544194134546842_);fill:#0E142D;" d="M251.1,64.6h-25.3
		c0.5,2.1,1.5,3.7,3.2,4.9c1.7,1.2,3.8,1.8,6.3,1.8c1.7,0,3.3-0.3,4.6-0.8c1.3-0.5,2.6-1.3,3.8-2.5l5.2,5.6
		c-3.1,3.6-7.7,5.4-13.8,5.4c-3.8,0-7.1-0.7-10-2.2c-2.9-1.5-5.1-3.5-6.7-6.1c-1.6-2.6-2.4-5.6-2.4-8.9c0-3.3,0.8-6.2,2.3-8.8
		c1.6-2.6,3.7-4.7,6.4-6.1c2.7-1.5,5.7-2.2,9.1-2.2c3.3,0,6.2,0.7,8.9,2.1c2.6,1.4,4.7,3.4,6.2,6.1c1.5,2.6,2.3,5.7,2.3,9.2
		C251.2,62.1,251.2,62.9,251.1,64.6 M228.4,53.8c-1.5,1.2-2.4,2.9-2.7,5.1h16.5c-0.3-2.1-1.2-3.8-2.7-5.1c-1.5-1.3-3.3-1.9-5.5-1.9
		C231.7,52,229.9,52.6,228.4,53.8"/>
	<path style="clip-path:url(#SVGID_00000099622882299471983790000017022544194134546842_);fill:#0E142D;" d="M260.8,78
		c-2.7-0.7-4.8-1.5-6.3-2.6l3.2-7c1.5,1,3.3,1.7,5.4,2.3c2.1,0.6,4.2,0.9,6.2,0.9c4.1,0,6.1-1,6.1-3c0-1-0.6-1.6-1.7-2
		c-1.1-0.4-2.8-0.8-5.2-1.1c-2.7-0.4-5-0.9-6.8-1.4c-1.8-0.5-3.3-1.5-4.6-2.9c-1.3-1.4-2-3.3-2-5.8c0-2.1,0.6-4,1.8-5.6
		c1.2-1.6,3-2.9,5.3-3.8c2.3-0.9,5.1-1.4,8.3-1.4c2.4,0,4.7,0.3,7,0.8c2.3,0.5,4.3,1.2,5.8,2.1l-3.2,6.9c-2.9-1.7-6.1-2.5-9.6-2.5
		c-2.1,0-3.6,0.3-4.7,0.9c-1,0.6-1.6,1.3-1.6,2.2c0,1,0.6,1.8,1.7,2.2c1.1,0.4,2.9,0.8,5.3,1.2c2.7,0.5,5,0.9,6.7,1.5
		c1.7,0.5,3.2,1.5,4.5,2.8c1.3,1.4,1.9,3.3,1.9,5.7c0,2.1-0.6,3.9-1.9,5.5c-1.2,1.6-3.1,2.9-5.4,3.8c-2.4,0.9-5.2,1.3-8.5,1.3
		C266.2,79,263.5,78.7,260.8,78"/>
	<path style="clip-path:url(#SVGID_00000099622882299471983790000017022544194134546842_);fill:#0E142D;" d="M293.8,78
		c-2.7-0.7-4.8-1.5-6.3-2.6l3.2-7c1.5,1,3.3,1.7,5.4,2.3c2.1,0.6,4.2,0.9,6.2,0.9c4.1,0,6.1-1,6.1-3c0-1-0.6-1.6-1.7-2
		c-1.1-0.4-2.8-0.8-5.2-1.1c-2.7-0.4-5-0.9-6.8-1.4c-1.8-0.5-3.3-1.5-4.6-2.9c-1.3-1.4-2-3.3-2-5.8c0-2.1,0.6-4,1.8-5.6
		c1.2-1.6,3-2.9,5.3-3.8c2.3-0.9,5.1-1.4,8.3-1.4c2.4,0,4.7,0.3,7,0.8c2.3,0.5,4.3,1.2,5.8,2.1l-3.2,6.9c-2.9-1.7-6.1-2.5-9.6-2.5
		c-2.1,0-3.6,0.3-4.7,0.9c-1,0.6-1.6,1.3-1.6,2.2c0,1,0.6,1.8,1.7,2.2c1.1,0.4,2.9,0.8,5.3,1.2c2.7,0.5,5,0.9,6.7,1.5
		c1.7,0.5,3.2,1.5,4.5,2.8c1.3,1.4,1.9,3.3,1.9,5.7c0,2.1-0.6,3.9-1.9,5.5c-1.2,1.6-3.1,2.9-5.4,3.8c-2.4,0.9-5.2,1.3-8.5,1.3
		C299.1,79,296.4,78.7,293.8,78"/>
	<path style="clip-path:url(#SVGID_00000099622882299471983790000017022544194134546842_);fill:#0E142D;" d="M356.2,64.6h-25.3
		c0.5,2.1,1.5,3.7,3.2,4.9c1.7,1.2,3.8,1.8,6.3,1.8c1.7,0,3.3-0.3,4.6-0.8c1.3-0.5,2.6-1.3,3.8-2.5l5.2,5.6
		c-3.1,3.6-7.7,5.4-13.8,5.4c-3.8,0-7.1-0.7-10-2.2c-2.9-1.5-5.1-3.5-6.7-6.1c-1.6-2.6-2.4-5.6-2.4-8.9c0-3.3,0.8-6.2,2.3-8.8
		c1.6-2.6,3.7-4.7,6.4-6.1c2.7-1.5,5.7-2.2,9.1-2.2c3.3,0,6.2,0.7,8.9,2.1c2.6,1.4,4.7,3.4,6.2,6.1c1.5,2.6,2.3,5.7,2.3,9.2
		C356.4,62.1,356.3,62.9,356.2,64.6 M333.5,53.8c-1.5,1.2-2.4,2.9-2.7,5.1h16.5c-0.3-2.1-1.2-3.8-2.7-5.1c-1.5-1.3-3.3-1.9-5.5-1.9
		C336.9,52,335,52.6,333.5,53.8"/>
	<path style="clip-path:url(#SVGID_00000099622882299471983790000017022544194134546842_);fill:#0E142D;" d="M393.2,48.4
		c2.5,2.5,3.8,6.2,3.8,11.1v19.1h-9.7V60.9c0-2.6-0.6-4.6-1.7-5.9c-1.2-1.3-2.8-2-5-2c-2.4,0-4.4,0.8-5.8,2.3
		c-1.5,1.5-2.2,3.8-2.2,6.7v16.5h-9.7V45.1h9.3V49c1.3-1.4,2.9-2.5,4.8-3.3c1.9-0.8,4-1.1,6.3-1.1C387.3,44.6,390.6,45.9,393.2,48.4
		"/>
	<polygon style="clip-path:url(#SVGID_00000099622882299471983790000017022544194134546842_);fill:#E01F26;" points="125.9,96.3 
		125.9,108.2 123.7,108.2 123.7,103.1 117.5,103.1 117.5,108.2 115.2,108.2 115.2,96.3 117.5,96.3 117.5,101.2 123.7,101.2 
		123.7,96.3 	"/>
	<polygon style="clip-path:url(#SVGID_00000099622882299471983790000017022544194134546842_);fill:#E01F26;" points="138.5,106.4 
		138.5,108.2 129.5,108.2 129.5,96.3 138.3,96.3 138.3,98.1 131.8,98.1 131.8,101.2 137.5,101.2 137.5,103.1 131.8,103.1 
		131.8,106.4 	"/>
	<path style="clip-path:url(#SVGID_00000099622882299471983790000017022544194134546842_);fill:#E01F26;" d="M149.2,105.5h-6
		l-1.2,2.8h-2.3l5.4-12h2.2l5.4,12h-2.3L149.2,105.5z M148.4,103.7l-2.3-5.2l-2.2,5.2H148.4z"/>
	<polygon style="clip-path:url(#SVGID_00000099622882299471983790000017022544194134546842_);fill:#E01F26;" points="156.5,98.2 
		152.5,98.2 152.5,96.3 162.7,96.3 162.7,98.2 158.7,98.2 158.7,108.2 156.5,108.2 	"/>
	
		<rect x="164.8" y="96.3" style="clip-path:url(#SVGID_00000099622882299471983790000017022544194134546842_);fill:#E01F26;" width="2.2" height="12"/>
	<polygon style="clip-path:url(#SVGID_00000099622882299471983790000017022544194134546842_);fill:#E01F26;" points="181.3,96.3 
		181.3,108.2 179.5,108.2 172.9,100.1 172.9,108.2 170.7,108.2 170.7,96.3 172.5,96.3 179.1,104.4 179.1,96.3 	"/>
	<path style="clip-path:url(#SVGID_00000099622882299471983790000017022544194134546842_);fill:#E01F26;" d="M193.1,102.1h2.1v4.8
		c-0.6,0.5-1.3,0.9-2.2,1.1s-1.7,0.4-2.5,0.4c-1.2,0-2.3-0.3-3.3-0.8c-1-0.5-1.8-1.3-2.3-2.2c-0.6-0.9-0.8-2-0.8-3.2
		c0-1.2,0.3-2.2,0.8-3.2c0.6-0.9,1.3-1.7,2.3-2.2c1-0.5,2.1-0.8,3.3-0.8c1,0,1.9,0.2,2.7,0.5s1.5,0.8,2.1,1.5l-1.4,1.4
		c-0.9-0.9-2-1.4-3.3-1.4c-0.8,0-1.6,0.2-2.2,0.5c-0.7,0.4-1.2,0.8-1.5,1.5c-0.4,0.6-0.6,1.4-0.6,2.2c0,0.8,0.2,1.5,0.6,2.2
		c0.4,0.6,0.9,1.1,1.5,1.5c0.7,0.4,1.4,0.5,2.2,0.5c0.9,0,1.8-0.2,2.5-0.6V102.1z"/>
	<path style="clip-path:url(#SVGID_00000099622882299471983790000017022544194134546842_);fill:#0E142D;" d="M212.7,108.4l-1.5-1.5
		c-1.1,1-2.5,1.4-4,1.4c-0.8,0-1.6-0.1-2.2-0.4c-0.7-0.3-1.2-0.7-1.6-1.1c-0.4-0.5-0.6-1-0.6-1.7c0-0.7,0.2-1.4,0.6-2
		c0.4-0.6,1.1-1.1,2.1-1.7c-0.5-0.5-0.8-0.9-1-1.3c-0.2-0.4-0.3-0.8-0.3-1.3c0-0.8,0.3-1.5,0.9-2c0.6-0.5,1.5-0.8,2.5-0.8
		c1,0,1.7,0.2,2.3,0.7c0.6,0.5,0.9,1.1,0.9,1.9c0,0.6-0.2,1.2-0.6,1.6c-0.4,0.5-1,1-1.9,1.5l2.6,2.5c0.3-0.6,0.5-1.2,0.7-2l1.7,0.6
		c-0.2,1.1-0.6,2-1.1,2.7l1.5,1.4L212.7,108.4z M209.9,105.8l-3.2-3c-0.7,0.4-1.2,0.7-1.4,1.1c-0.3,0.3-0.4,0.7-0.4,1.2
		c0,0.5,0.2,0.9,0.7,1.2c0.4,0.3,1,0.5,1.8,0.5C208.3,106.7,209.2,106.4,209.9,105.8 M206.6,98c-0.3,0.2-0.4,0.5-0.4,0.9
		c0,0.3,0.1,0.5,0.2,0.8c0.1,0.2,0.4,0.6,0.9,1c0.7-0.4,1.2-0.7,1.4-1c0.3-0.3,0.4-0.6,0.4-0.9c0-0.4-0.1-0.6-0.4-0.8
		c-0.2-0.2-0.6-0.3-1-0.3C207.2,97.7,206.9,97.8,206.6,98"/>
	<path style="clip-path:url(#SVGID_00000099622882299471983790000017022544194134546842_);fill:#0294CC;" d="M229.1,105.5h-6
		l-1.2,2.8h-2.3l5.4-12h2.2l5.4,12h-2.3L229.1,105.5z M228.4,103.7l-2.3-5.2l-2.2,5.2H228.4z"/>
	
		<rect x="234.6" y="96.3" style="clip-path:url(#SVGID_00000099622882299471983790000017022544194134546842_);fill:#0294CC;" width="2.2" height="12"/>
	<path style="clip-path:url(#SVGID_00000099622882299471983790000017022544194134546842_);fill:#0294CC;" d="M248.3,108.2l-2.4-3.5
		c-0.1,0-0.3,0-0.5,0h-2.7v3.5h-2.2v-12h4.9c1,0,1.9,0.2,2.7,0.5c0.8,0.3,1.4,0.8,1.8,1.5c0.4,0.6,0.6,1.4,0.6,2.3
		c0,0.9-0.2,1.7-0.7,2.3c-0.4,0.7-1.1,1.1-1.9,1.5l2.8,3.9H248.3z M247.5,98.8c-0.5-0.4-1.2-0.6-2.2-0.6h-2.6v4.8h2.6
		c1,0,1.7-0.2,2.2-0.6c0.5-0.4,0.8-1,0.8-1.8S248,99.2,247.5,98.8"/>
	<path style="clip-path:url(#SVGID_00000099622882299471983790000017022544194134546842_);fill:#0294CC;" d="M260.8,107.6
		c-1-0.5-1.7-1.3-2.3-2.2c-0.6-0.9-0.8-2-0.8-3.2c0-1.2,0.3-2.2,0.8-3.2c0.6-0.9,1.3-1.7,2.3-2.2c1-0.5,2.1-0.8,3.3-0.8
		c1,0,1.9,0.2,2.7,0.5c0.8,0.3,1.5,0.8,2.1,1.5l-1.4,1.3c-0.9-0.9-1.9-1.4-3.2-1.4c-0.8,0-1.6,0.2-2.2,0.5c-0.6,0.4-1.2,0.9-1.5,1.5
		c-0.4,0.6-0.5,1.4-0.5,2.2c0,0.8,0.2,1.5,0.5,2.2c0.4,0.6,0.9,1.1,1.5,1.5c0.6,0.4,1.4,0.5,2.2,0.5c1.3,0,2.3-0.5,3.2-1.4l1.4,1.4
		c-0.6,0.6-1.2,1.1-2.1,1.5c-0.8,0.3-1.7,0.5-2.7,0.5C262.9,108.4,261.8,108.1,260.8,107.6"/>
	<path style="clip-path:url(#SVGID_00000099622882299471983790000017022544194134546842_);fill:#0294CC;" d="M273.4,107.6
		c-1-0.5-1.7-1.3-2.3-2.2c-0.6-0.9-0.8-2-0.8-3.2c0-1.2,0.3-2.2,0.8-3.2c0.6-0.9,1.3-1.7,2.3-2.2c1-0.5,2.1-0.8,3.3-0.8
		c1.2,0,2.3,0.3,3.3,0.8c1,0.5,1.8,1.3,2.3,2.2c0.6,0.9,0.8,2,0.8,3.2c0,1.2-0.3,2.2-0.8,3.2c-0.6,0.9-1.3,1.7-2.3,2.2
		c-1,0.5-2.1,0.8-3.3,0.8C275.5,108.4,274.4,108.1,273.4,107.6 M278.9,105.9c0.6-0.4,1.1-0.9,1.5-1.5c0.4-0.6,0.5-1.4,0.5-2.2
		c0-0.8-0.2-1.5-0.5-2.2c-0.4-0.6-0.9-1.1-1.5-1.5c-0.6-0.4-1.4-0.5-2.2-0.5c-0.8,0-1.5,0.2-2.2,0.5c-0.6,0.4-1.1,0.9-1.5,1.5
		c-0.4,0.6-0.5,1.4-0.5,2.2c0,0.8,0.2,1.5,0.5,2.2c0.4,0.6,0.9,1.1,1.5,1.5c0.6,0.4,1.4,0.5,2.2,0.5
		C277.5,106.5,278.3,106.3,278.9,105.9"/>
	<polygon style="clip-path:url(#SVGID_00000099622882299471983790000017022544194134546842_);fill:#0294CC;" points="296.6,96.3 
		296.6,108.2 294.8,108.2 288.2,100.1 288.2,108.2 286,108.2 286,96.3 287.8,96.3 294.4,104.4 294.4,96.3 	"/>
	<path style="clip-path:url(#SVGID_00000099622882299471983790000017022544194134546842_);fill:#0294CC;" d="M300.3,96.3h5.2
		c1.3,0,2.4,0.2,3.4,0.7c1,0.5,1.8,1.2,2.3,2.1s0.8,2,0.8,3.1c0,1.2-0.3,2.2-0.8,3.1s-1.3,1.6-2.3,2.1c-1,0.5-2.1,0.7-3.4,0.7h-5.2
		V96.3z M305.4,106.4c0.9,0,1.7-0.2,2.3-0.5c0.7-0.3,1.2-0.8,1.5-1.4c0.4-0.6,0.5-1.3,0.5-2.2s-0.2-1.5-0.5-2.2
		c-0.4-0.6-0.9-1.1-1.5-1.4c-0.7-0.3-1.4-0.5-2.3-0.5h-2.9v8.2H305.4z"/>
	
		<rect x="314.8" y="96.3" style="clip-path:url(#SVGID_00000099622882299471983790000017022544194134546842_);fill:#0294CC;" width="2.2" height="12"/>
	<polygon style="clip-path:url(#SVGID_00000099622882299471983790000017022544194134546842_);fill:#0294CC;" points="323.1,98.2 
		319.2,98.2 319.2,96.3 329.3,96.3 329.3,98.2 325.3,98.2 325.3,108.2 323.1,108.2 	"/>
	
		<rect x="331.4" y="96.3" style="clip-path:url(#SVGID_00000099622882299471983790000017022544194134546842_);fill:#0294CC;" width="2.2" height="12"/>
	<path style="clip-path:url(#SVGID_00000099622882299471983790000017022544194134546842_);fill:#0294CC;" d="M339.6,107.6
		c-1-0.5-1.7-1.3-2.3-2.2c-0.6-0.9-0.8-2-0.8-3.2c0-1.2,0.3-2.2,0.8-3.2c0.6-0.9,1.3-1.7,2.3-2.2c1-0.5,2.1-0.8,3.3-0.8
		c1.2,0,2.3,0.3,3.3,0.8c1,0.5,1.8,1.3,2.3,2.2c0.6,0.9,0.8,2,0.8,3.2c0,1.2-0.3,2.2-0.8,3.2c-0.6,0.9-1.3,1.7-2.3,2.2
		c-1,0.5-2.1,0.8-3.3,0.8C341.7,108.4,340.6,108.1,339.6,107.6 M345,105.9c0.6-0.4,1.1-0.9,1.5-1.5c0.4-0.6,0.5-1.4,0.5-2.2
		c0-0.8-0.2-1.5-0.5-2.2c-0.4-0.6-0.9-1.1-1.5-1.5c-0.6-0.4-1.4-0.5-2.2-0.5c-0.8,0-1.5,0.2-2.2,0.5c-0.6,0.4-1.1,0.9-1.5,1.5
		c-0.4,0.6-0.5,1.4-0.5,2.2c0,0.8,0.2,1.5,0.5,2.2c0.4,0.6,0.9,1.1,1.5,1.5c0.6,0.4,1.4,0.5,2.2,0.5
		C343.7,106.5,344.4,106.3,345,105.9"/>
	<polygon style="clip-path:url(#SVGID_00000099622882299471983790000017022544194134546842_);fill:#0294CC;" points="362.8,96.3 
		362.8,108.2 360.9,108.2 354.3,100.1 354.3,108.2 352.1,108.2 352.1,96.3 354,96.3 360.6,104.4 360.6,96.3 	"/>
	
		<rect x="366.4" y="96.3" style="clip-path:url(#SVGID_00000099622882299471983790000017022544194134546842_);fill:#0294CC;" width="2.2" height="12"/>
	<polygon style="clip-path:url(#SVGID_00000099622882299471983790000017022544194134546842_);fill:#0294CC;" points="382.9,96.3 
		382.9,108.2 381.1,108.2 374.5,100.1 374.5,108.2 372.3,108.2 372.3,96.3 374.1,96.3 380.7,104.4 380.7,96.3 	"/>
	<path style="clip-path:url(#SVGID_00000099622882299471983790000017022544194134546842_);fill:#0294CC;" d="M394.7,102.1h2.1v4.8
		c-0.6,0.5-1.3,0.9-2.2,1.1c-0.8,0.3-1.7,0.4-2.5,0.4c-1.2,0-2.3-0.3-3.3-0.8s-1.8-1.3-2.3-2.2c-0.6-0.9-0.8-2-0.8-3.2
		c0-1.2,0.3-2.2,0.8-3.2c0.6-0.9,1.3-1.7,2.3-2.2c1-0.5,2.1-0.8,3.3-0.8c1,0,1.9,0.2,2.7,0.5c0.8,0.3,1.5,0.8,2.1,1.5l-1.4,1.4
		c-0.9-0.9-2-1.4-3.3-1.4c-0.8,0-1.6,0.2-2.2,0.5c-0.7,0.4-1.2,0.8-1.5,1.5c-0.4,0.6-0.6,1.4-0.6,2.2c0,0.8,0.2,1.5,0.6,2.2
		c0.4,0.6,0.9,1.1,1.5,1.5c0.7,0.4,1.4,0.5,2.2,0.5c0.9,0,1.8-0.2,2.5-0.6V102.1z"/>
</g>
</svg>
