<?xml version="1.0" encoding="utf-8"?>
<!-- Generator: Adobe Illustrator 25.4.1, SVG Export Plug-In . SVG Version: 6.00 Build 0)  -->
<svg version="1.1" id="Layer_1" xmlns="http://www.w3.org/2000/svg" xmlns:xlink="http://www.w3.org/1999/xlink" x="0px" y="0px"
	 viewBox="0 0 396 111.7" style="enable-background:new 0 0 396 111.7;" xml:space="preserve">
<style type="text/css">
	.st0{fill:#888996;}
</style>
<g>
	<path class="st0" d="M46.5,66.1H43v3.5l-2.5,2.5l2.5,2.5v3.5h2.8c1.2-4,3-8.2,5.5-12.3L49,63.6L46.5,66.1z"/>
	<path class="st0" d="M61.8,69c0,0.1-0.1,0.3-0.1,0.4l0.1-0.1C61.8,69.1,61.8,69,61.8,69z"/>
	<path class="st0" d="M43,78.1v-3.5l-2.5-2.5l2.5-2.5v-3.5h3.5l2.5-2.5l2.3,2.3c0.5-0.8,1-1.6,1.5-2.3h-0.2l-2.3-2.3v-0.4l5.1-5.1
		c0.5-0.5,0.5-1.3,0-1.8c-0.5-0.5-1.3-0.5-1.8,0l-3.3,3.3V55l8.4-8.4c0.5-0.5,0.5-1.3,0-1.8c-0.5-0.5-1.3-0.5-1.8,0l-6.6,6.6V40.8
		h3.4c0.7,0,1.3-0.6,1.3-1.3c0-0.7-0.6-1.3-1.3-1.3h-3.4V35c0-0.7-0.6-1.3-1.3-1.3c-0.7,0-1.3,0.6-1.3,1.3v3.3h-3.4
		c-0.7,0-1.3,0.6-1.3,1.3c0,0.7,0.6,1.3,1.3,1.3h3.4v10.6l-6.6-6.6c-0.5-0.5-1.3-0.5-1.8,0c-0.5,0.5-0.5,1.3,0,1.8l8.4,8.4v2.3
		L44.4,54c-0.5-0.5-1.3-0.5-1.8,0c-0.5,0.5-0.5,1.3,0,1.8l5.1,5.1v0.4l-2.3,2.3h-3.2l-4.4-4.4V47.2c0-0.7-0.6-1.3-1.3-1.3
		c-0.7,0-1.3,0.6-1.3,1.3v9.4l-7.5-7.5l2.4-2.4c0.5-0.5,0.5-1.3,0-1.8c-0.5-0.5-1.3-0.5-1.8,0l-2.4,2.4l-2.3-2.3
		c-0.5-0.5-1.3-0.5-1.8,0c-0.5,0.5-0.5,1.3,0,1.8l2.3,2.3l-2.4,2.4c-0.5,0.5-0.5,1.3,0,1.8c0.2,0.2,0.6,0.4,0.9,0.4
		c0.3,0,0.7-0.1,0.9-0.4l2.4-2.4l7.5,7.5h-9.4c-0.7,0-1.3,0.6-1.3,1.3c0,0.7,0.6,1.3,1.3,1.3H36l4.4,4.4v3.2l-2.3,2.3h-0.4l-5.1-5.1
		c-0.5-0.5-1.3-0.5-1.8,0c-0.5,0.5-0.5,1.3,0,1.8l3.3,3.3h-2.3l-8.4-8.4c-0.5-0.5-1.3-0.5-1.8,0c-0.5,0.5-0.5,1.3,0,1.8l6.6,6.6
		H17.7v-3.4c0-0.7-0.6-1.3-1.3-1.3c-0.7,0-1.3,0.6-1.3,1.3v3.4h-3.3c-0.7,0-1.3,0.6-1.3,1.3s0.6,1.3,1.3,1.3h3.3v3.4
		c0,0.7,0.6,1.3,1.3,1.3c0.7,0,1.3-0.6,1.3-1.3v-3.4h10.6L21.6,80c-0.5,0.5-0.5,1.3,0,1.8c0.2,0.2,0.6,0.4,0.9,0.4
		c0.3,0,0.7-0.1,0.9-0.4l8.4-8.4h2.3l-3.3,3.3c-0.5,0.5-0.5,1.3,0,1.8c0.2,0.2,0.6,0.4,0.9,0.4c0.3,0,0.7-0.1,0.9-0.4l5.1-5.1h0.4
		l2.3,2.3v3.2L36,83.3H24.1c-0.7,0-1.3,0.6-1.3,1.3c0,0.7,0.6,1.3,1.3,1.3h9.4l-7.5,7.5l-2.4-2.4c-0.5-0.5-1.3-0.5-1.8,0
		c-0.5,0.5-0.5,1.3,0,1.8l2.4,2.4l-2.3,2.3c-0.5,0.5-0.5,1.3,0,1.8c0.2,0.2,0.6,0.4,0.9,0.4c0.3,0,0.7-0.1,0.9-0.4l2.3-2.3l2.4,2.4
		c0.2,0.2,0.6,0.4,0.9,0.4c0.3,0,0.7-0.1,0.9-0.4c0.5-0.5,0.5-1.3,0-1.8l-2.4-2.4l7.5-7.5V97c0,0.7,0.6,1.3,1.3,1.3
		c0.7,0,1.3-0.6,1.3-1.3V85.1l4.4-4.4h2.8c0.2-0.8,0.4-1.7,0.7-2.6H43z"/>
	<path class="st0" d="M89,69.9c1.3-8.8,0-20.6,0-20.6s4.8,8.6,4.7,17.7c0,0,0,0.1,0,0.1c0,0.2,0,0.4,0,0.6c0,0.1,0,0.1,0,0.2
		c0,0.2,0,0.4,0,0.5c0,0.1,0,0.1,0,0.2c0,0.2,0,0.3,0,0.5c0,0.1,0,0.1,0,0.2c0,0.2,0,0.3-0.1,0.5c0,0.1,0,0.1,0,0.2
		c0,0.2,0,0.3-0.1,0.5c0,0.1,0,0.1,0,0.2c0,0.2-0.1,0.3-0.1,0.5c0,0.1,0,0.1,0,0.2c0,0.2-0.1,0.4-0.1,0.5c0,0,0,0.1,0,0.1
		c-0.1,0.6-0.3,1.2-0.5,1.8c0,0.1-0.1,0.2-0.1,0.2c-0.1,0.1-0.1,0.3-0.2,0.4c0,0.1-0.1,0.2-0.1,0.3c-0.1,0.1-0.1,0.3-0.2,0.4
		c0,0.1-0.1,0.2-0.1,0.3c-0.1,0.1-0.1,0.2-0.2,0.4c-0.1,0.1-0.1,0.2-0.2,0.3c-0.1,0.1-0.1,0.2-0.2,0.4c-0.1,0.1-0.1,0.2-0.2,0.3
		c-0.1,0.1-0.1,0.2-0.2,0.3c-0.1,0.1-0.1,0.2-0.2,0.3s-0.1,0.2-0.2,0.3c-0.1,0.1-0.2,0.2-0.2,0.3c-0.1,0.1-0.2,0.2-0.2,0.3
		c-0.1,0.1-0.2,0.2-0.3,0.3c-0.1,0.1-0.2,0.2-0.2,0.3c-0.1,0.1-0.2,0.3-0.3,0.4c-0.1,0.1-0.1,0.2-0.2,0.2c-0.2,0.2-0.4,0.4-0.6,0.6
		c-0.1,0.1-0.1,0.1-0.2,0.2c-0.1,0.1-0.3,0.3-0.4,0.4c-0.1,0.1-0.2,0.2-0.3,0.2c-0.1,0.1-0.3,0.2-0.4,0.3c-0.1,0.1-0.2,0.2-0.3,0.2
		c-0.1,0.1-0.3,0.2-0.4,0.3c-0.1,0.1-0.2,0.2-0.3,0.2c-0.1,0.1-0.3,0.2-0.4,0.3c-0.1,0.1-0.2,0.2-0.4,0.2c-0.2,0.1-0.3,0.2-0.5,0.3
		c-0.1,0.1-0.3,0.1-0.4,0.2c-0.2,0.1-0.3,0.2-0.5,0.3c-0.1,0.1-0.3,0.1-0.4,0.2c-0.2,0.1-0.4,0.2-0.5,0.3c-0.1,0.1-0.3,0.1-0.4,0.2
		c-0.2,0.1-0.4,0.2-0.6,0.3c-0.1,0.1-0.3,0.1-0.4,0.2c-0.2,0.1-0.5,0.2-0.7,0.3c-0.1,0-0.2,0.1-0.4,0.1c-0.4,0.1-0.7,0.3-1.1,0.4
		C79.3,85.4,87.8,78.7,89,69.9z M74.9,87.4c-6.3-12.6,32-27.5-6.3-87.4c0,0,9.2,33.6-11.8,58.3c-18.2,21.4-16.4,48.1,2.4,51.8
		c0.9,0.2,1.7,0.3,2.6,0.4c0,0-11.4-5.1-10.1-18.1c1.3-13,7.6-15.2,10.1-23.4c0,0-3.6,18.9,0,26.3c2.5,5,10.9,7.1,15.1,1.7
		c0,0-0.1,5.4-2.6,9.6c0,0,0,0,0,0c-0.2,0.3-0.4,0.6-0.6,0.9c0,0,0,0,0,0c-0.2,0.3-0.4,0.5-0.6,0.8c0,0,0,0-0.1,0.1
		c-0.2,0.2-0.5,0.5-0.7,0.7c0,0,0,0-0.1,0.1c-0.3,0.2-0.5,0.4-0.8,0.6c13.4-3.3,23.6-15.8,23.6-25.7C95.1,84.1,81.2,100,74.9,87.4z"
		/>
	<path class="st0" d="M1.5,66c0-25.3,20.6-46,46-46c5.3,0,10.4,0.9,15.2,2.6L62.4,21c-4.7-1.6-9.8-2.4-15-2.4C21.3,18.6,0,39.8,0,66
		c0,21.8,14.8,40.2,34.9,45.7l0.8-1.3C16,105.2,1.5,87.3,1.5,66z"/>
</g>
<g>
	<path class="st0" d="M126.8,43.4h-13.9v-8.2h37.9v8.2h-13.9v35.3h-10.1V43.4z"/>
	<path class="st0" d="M184.7,64.7h-25.3c0.5,2.1,1.5,3.7,3.2,4.9c1.7,1.2,3.8,1.8,6.3,1.8c1.7,0,3.3-0.3,4.6-0.8
		c1.3-0.5,2.6-1.3,3.8-2.5l5.2,5.6c-3.1,3.6-7.7,5.4-13.8,5.4c-3.8,0-7.1-0.7-10-2.2c-2.9-1.5-5.1-3.5-6.7-6.1
		c-1.6-2.6-2.4-5.6-2.4-8.9c0-3.3,0.8-6.2,2.3-8.9c1.6-2.6,3.7-4.7,6.4-6.1c2.7-1.5,5.7-2.2,9.1-2.2c3.3,0,6.2,0.7,8.9,2.1
		c2.6,1.4,4.7,3.4,6.2,6.1c1.5,2.6,2.3,5.7,2.3,9.2C184.8,62.2,184.8,63.1,184.7,64.7z M162,54c-1.5,1.2-2.4,2.9-2.7,5.1h16.5
		c-0.3-2.1-1.2-3.8-2.7-5.1c-1.5-1.3-3.3-1.9-5.5-1.9C165.3,52.1,163.5,52.7,162,54z"/>
	<path class="st0" d="M205.2,46c2-0.8,4.2-1.2,6.8-1.2v8.9c-1.1-0.1-1.8-0.1-2.2-0.1c-2.8,0-4.9,0.8-6.5,2.3c-1.6,1.6-2.4,3.9-2.4,7
		v15.8h-9.7V45.3h9.3v4.4C201.7,48.1,203.3,46.8,205.2,46z"/>
	<path class="st0" d="M250.1,64.7h-25.3c0.5,2.1,1.5,3.7,3.2,4.9c1.7,1.2,3.8,1.8,6.3,1.8c1.7,0,3.3-0.3,4.6-0.8
		c1.3-0.5,2.6-1.3,3.8-2.5l5.2,5.6c-3.1,3.6-7.7,5.4-13.8,5.4c-3.8,0-7.1-0.7-10-2.2c-2.9-1.5-5.1-3.5-6.7-6.1
		c-1.6-2.6-2.4-5.6-2.4-8.9c0-3.3,0.8-6.2,2.3-8.9c1.6-2.6,3.7-4.7,6.4-6.1c2.7-1.5,5.7-2.2,9.1-2.2c3.3,0,6.2,0.7,8.9,2.1
		c2.6,1.4,4.7,3.4,6.2,6.1c1.5,2.6,2.3,5.7,2.3,9.2C250.2,62.2,250.2,63.1,250.1,64.7z M227.4,54c-1.5,1.2-2.4,2.9-2.7,5.1h16.5
		c-0.3-2.1-1.2-3.8-2.7-5.1c-1.5-1.3-3.3-1.9-5.5-1.9C230.7,52.1,228.9,52.7,227.4,54z"/>
	<path class="st0" d="M259.8,78.2c-2.7-0.7-4.8-1.5-6.3-2.6l3.2-7c1.5,1,3.3,1.7,5.4,2.3c2.1,0.6,4.2,0.9,6.2,0.9c4.1,0,6.1-1,6.1-3
		c0-1-0.6-1.6-1.7-2c-1.1-0.4-2.8-0.8-5.2-1.1c-2.7-0.4-5-0.9-6.8-1.4c-1.8-0.5-3.3-1.5-4.6-2.9c-1.3-1.4-2-3.3-2-5.8
		c0-2.1,0.6-4,1.8-5.6c1.2-1.6,3-2.9,5.3-3.8c2.3-0.9,5.1-1.4,8.3-1.4c2.4,0,4.7,0.3,7,0.8c2.3,0.5,4.3,1.2,5.8,2.1l-3.2,6.9
		c-2.9-1.7-6.1-2.5-9.6-2.5c-2.1,0-3.6,0.3-4.7,0.9c-1,0.6-1.6,1.3-1.6,2.2c0,1,0.6,1.8,1.7,2.2c1.1,0.4,2.9,0.8,5.3,1.2
		c2.7,0.5,5,0.9,6.7,1.5c1.7,0.5,3.3,1.5,4.5,2.8c1.3,1.4,1.9,3.3,1.9,5.7c0,2.1-0.6,3.9-1.9,5.5c-1.2,1.6-3.1,2.9-5.4,3.8
		c-2.4,0.9-5.2,1.3-8.5,1.3C265.2,79.2,262.5,78.8,259.8,78.2z"/>
	<path class="st0" d="M292.8,78.2c-2.7-0.7-4.8-1.5-6.3-2.6l3.2-7c1.5,1,3.3,1.7,5.4,2.3c2.1,0.6,4.2,0.9,6.2,0.9c4.1,0,6.1-1,6.1-3
		c0-1-0.6-1.6-1.7-2c-1.1-0.4-2.8-0.8-5.2-1.1c-2.7-0.4-5-0.9-6.8-1.4c-1.8-0.5-3.3-1.5-4.6-2.9c-1.3-1.4-2-3.3-2-5.8
		c0-2.1,0.6-4,1.8-5.6c1.2-1.6,3-2.9,5.3-3.8c2.3-0.9,5.1-1.4,8.3-1.4c2.4,0,4.7,0.3,7,0.8c2.3,0.5,4.3,1.2,5.8,2.1l-3.2,6.9
		c-2.9-1.7-6.1-2.5-9.6-2.5c-2.1,0-3.6,0.3-4.7,0.9c-1,0.6-1.6,1.3-1.6,2.2c0,1,0.6,1.8,1.7,2.2c1.1,0.4,2.9,0.8,5.3,1.2
		c2.7,0.5,5,0.9,6.7,1.5c1.7,0.5,3.3,1.5,4.5,2.8c1.3,1.4,1.9,3.3,1.9,5.7c0,2.1-0.6,3.9-1.9,5.5c-1.2,1.6-3.1,2.9-5.4,3.8
		c-2.4,0.9-5.2,1.3-8.5,1.3C298.1,79.2,295.4,78.8,292.8,78.2z"/>
	<path class="st0" d="M355.2,64.7h-25.3c0.5,2.1,1.5,3.7,3.2,4.9c1.7,1.2,3.8,1.8,6.3,1.8c1.7,0,3.3-0.3,4.6-0.8
		c1.3-0.5,2.6-1.3,3.8-2.5l5.2,5.6c-3.1,3.6-7.7,5.4-13.8,5.4c-3.8,0-7.1-0.7-10-2.2c-2.9-1.5-5.1-3.5-6.7-6.1
		c-1.6-2.6-2.4-5.6-2.4-8.9c0-3.3,0.8-6.2,2.3-8.9c1.6-2.6,3.7-4.7,6.4-6.1c2.7-1.5,5.7-2.2,9.1-2.2c3.3,0,6.2,0.7,8.9,2.1
		c2.6,1.4,4.7,3.4,6.2,6.1c1.5,2.6,2.3,5.7,2.3,9.2C355.4,62.2,355.3,63.1,355.2,64.7z M332.5,54c-1.5,1.2-2.4,2.9-2.7,5.1h16.5
		c-0.3-2.1-1.2-3.8-2.7-5.1c-1.5-1.3-3.3-1.9-5.5-1.9C335.9,52.1,334,52.7,332.5,54z"/>
	<path class="st0" d="M392.2,48.5c2.5,2.5,3.8,6.2,3.8,11.1v19.1h-9.7V61c0-2.6-0.6-4.6-1.7-5.9c-1.2-1.3-2.8-2-5-2
		c-2.4,0-4.4,0.8-5.8,2.3c-1.4,1.5-2.2,3.8-2.2,6.7v16.5h-9.7V45.3h9.3v3.9c1.3-1.4,2.9-2.5,4.8-3.3c1.9-0.8,4-1.1,6.3-1.1
		C386.3,44.8,389.6,46,392.2,48.5z"/>
</g>
<path class="st0" d="M124.9,96.4v12h-2.2v-5.1h-6.2v5.1h-2.2v-12h2.2v4.9h6.2v-4.9H124.9z"/>
<path class="st0" d="M137.5,106.5v1.9h-9v-12h8.7v1.9h-6.5v3.1h5.8v1.8h-5.8v3.3H137.5z"/>
<path class="st0" d="M148.2,105.6h-6l-1.2,2.8h-2.3l5.4-12h2.2l5.4,12h-2.3L148.2,105.6z M147.4,103.9l-2.3-5.2l-2.2,5.2H147.4z"/>
<path class="st0" d="M155.5,98.3h-4v-1.9h10.2v1.9h-4v10.1h-2.2V98.3z"/>
<path class="st0" d="M163.8,96.4h2.2v12h-2.2V96.4z"/>
<path class="st0" d="M180.3,96.4v12h-1.8l-6.6-8.1v8.1h-2.2v-12h1.8l6.6,8.1v-8.1H180.3z"/>
<path class="st0" d="M192.1,102.3h2.1v4.8c-0.6,0.5-1.3,0.9-2.2,1.1s-1.7,0.4-2.5,0.4c-1.2,0-2.3-0.3-3.3-0.8
	c-1-0.5-1.7-1.3-2.3-2.2c-0.6-0.9-0.8-2-0.8-3.2c0-1.2,0.3-2.2,0.8-3.2c0.6-0.9,1.3-1.7,2.3-2.2c1-0.5,2.1-0.8,3.3-0.8
	c1,0,1.9,0.2,2.7,0.5c0.8,0.3,1.5,0.8,2.1,1.5l-1.4,1.4c-0.9-0.9-2-1.4-3.3-1.4c-0.8,0-1.6,0.2-2.2,0.5c-0.7,0.4-1.2,0.8-1.5,1.5
	c-0.4,0.6-0.6,1.4-0.6,2.2c0,0.8,0.2,1.5,0.6,2.2c0.4,0.6,0.9,1.1,1.5,1.5c0.7,0.4,1.4,0.5,2.2,0.5c0.9,0,1.8-0.2,2.5-0.6V102.3z"/>
<path class="st0" d="M211.7,108.6l-1.5-1.5c-1.1,1-2.5,1.4-4,1.4c-0.8,0-1.6-0.1-2.2-0.4c-0.7-0.3-1.2-0.7-1.6-1.1
	c-0.4-0.5-0.6-1-0.6-1.7c0-0.7,0.2-1.4,0.7-2c0.4-0.6,1.1-1.1,2.1-1.7c-0.5-0.5-0.8-0.9-1-1.3c-0.2-0.4-0.3-0.8-0.3-1.3
	c0-0.8,0.3-1.5,0.9-2c0.6-0.5,1.5-0.8,2.5-0.8c1,0,1.7,0.2,2.3,0.7c0.6,0.5,0.9,1.1,0.9,1.9c0,0.6-0.2,1.2-0.6,1.6
	c-0.4,0.5-1,1-1.9,1.5l2.6,2.5c0.3-0.6,0.5-1.2,0.7-2l1.7,0.6c-0.2,1.1-0.6,2-1.1,2.7l1.5,1.4L211.7,108.6z M208.9,105.9l-3.2-3
	c-0.7,0.4-1.2,0.7-1.4,1.1c-0.3,0.3-0.4,0.7-0.4,1.2c0,0.5,0.2,0.9,0.7,1.2c0.4,0.3,1,0.5,1.8,0.5
	C207.3,106.8,208.2,106.5,208.9,105.9z M205.6,98.2c-0.3,0.2-0.4,0.5-0.4,0.9c0,0.3,0.1,0.5,0.2,0.8c0.1,0.2,0.4,0.6,0.9,1
	c0.7-0.4,1.2-0.7,1.4-1c0.3-0.3,0.4-0.6,0.4-0.9c0-0.4-0.1-0.6-0.4-0.8c-0.2-0.2-0.6-0.3-1-0.3C206.2,97.8,205.9,97.9,205.6,98.2z"
	/>
<path class="st0" d="M228.1,105.6h-6l-1.2,2.8h-2.3l5.4-12h2.2l5.4,12h-2.3L228.1,105.6z M227.4,103.9l-2.3-5.2l-2.2,5.2H227.4z"/>
<path class="st0" d="M233.6,96.4h2.2v12h-2.2V96.4z"/>
<path class="st0" d="M247.3,108.4l-2.4-3.5c-0.1,0-0.3,0-0.5,0h-2.7v3.5h-2.2v-12h4.9c1,0,1.9,0.2,2.7,0.5c0.8,0.3,1.4,0.8,1.8,1.5
	c0.4,0.6,0.6,1.4,0.6,2.3c0,0.9-0.2,1.7-0.7,2.3c-0.4,0.7-1.1,1.1-1.9,1.5l2.8,3.9H247.3z M246.5,98.9c-0.5-0.4-1.2-0.6-2.2-0.6
	h-2.6v4.8h2.6c1,0,1.7-0.2,2.2-0.6c0.5-0.4,0.8-1,0.8-1.8C247.3,99.9,247,99.3,246.5,98.9z"/>
<path class="st0" d="M259.8,107.8c-1-0.5-1.7-1.3-2.3-2.2c-0.6-0.9-0.8-2-0.8-3.2c0-1.2,0.3-2.2,0.8-3.2c0.6-0.9,1.3-1.7,2.3-2.2
	c1-0.5,2.1-0.8,3.3-0.8c1,0,1.9,0.2,2.7,0.5c0.8,0.3,1.5,0.8,2.1,1.5l-1.4,1.4c-0.9-0.9-1.9-1.4-3.2-1.4c-0.8,0-1.6,0.2-2.2,0.5
	s-1.2,0.9-1.5,1.5c-0.4,0.6-0.5,1.4-0.5,2.2c0,0.8,0.2,1.5,0.5,2.2c0.4,0.6,0.9,1.1,1.5,1.5c0.7,0.4,1.4,0.5,2.2,0.5
	c1.3,0,2.3-0.5,3.2-1.4l1.4,1.4c-0.6,0.7-1.2,1.1-2.1,1.5c-0.8,0.3-1.7,0.5-2.7,0.5C261.9,108.6,260.8,108.3,259.8,107.8z"/>
<path class="st0" d="M272.4,107.8c-1-0.5-1.7-1.3-2.3-2.2c-0.6-0.9-0.8-2-0.8-3.2c0-1.2,0.3-2.2,0.8-3.2c0.6-0.9,1.3-1.7,2.3-2.2
	s2.1-0.8,3.3-0.8c1.2,0,2.3,0.3,3.3,0.8c1,0.5,1.7,1.3,2.3,2.2c0.6,0.9,0.8,2,0.8,3.2c0,1.2-0.3,2.2-0.8,3.2
	c-0.6,0.9-1.3,1.7-2.3,2.2c-1,0.5-2.1,0.8-3.3,0.8C274.5,108.6,273.4,108.3,272.4,107.8z M277.9,106.1c0.6-0.4,1.1-0.9,1.5-1.5
	c0.4-0.6,0.5-1.4,0.5-2.2c0-0.8-0.2-1.5-0.5-2.2s-0.9-1.1-1.5-1.5s-1.4-0.5-2.2-0.5c-0.8,0-1.5,0.2-2.2,0.5s-1.1,0.9-1.5,1.5
	c-0.4,0.6-0.5,1.4-0.5,2.2c0,0.8,0.2,1.5,0.5,2.2c0.4,0.6,0.9,1.1,1.5,1.5c0.6,0.4,1.4,0.5,2.2,0.5
	C276.5,106.6,277.3,106.4,277.9,106.1z"/>
<path class="st0" d="M295.6,96.4v12h-1.8l-6.6-8.1v8.1H285v-12h1.8l6.6,8.1v-8.1H295.6z"/>
<path class="st0" d="M299.3,96.4h5.2c1.3,0,2.4,0.2,3.4,0.7s1.8,1.2,2.3,2.1c0.5,0.9,0.8,2,0.8,3.1c0,1.2-0.3,2.2-0.8,3.1
	c-0.5,0.9-1.3,1.6-2.3,2.1s-2.1,0.7-3.4,0.7h-5.2V96.4z M304.4,106.5c0.9,0,1.7-0.2,2.3-0.5c0.7-0.3,1.2-0.8,1.5-1.4
	c0.4-0.6,0.5-1.3,0.5-2.2c0-0.8-0.2-1.5-0.5-2.2c-0.4-0.6-0.9-1.1-1.5-1.4c-0.7-0.3-1.4-0.5-2.3-0.5h-2.9v8.2H304.4z"/>
<path class="st0" d="M313.8,96.4h2.2v12h-2.2V96.4z"/>
<path class="st0" d="M322.1,98.3h-4v-1.9h10.2v1.9h-4v10.1h-2.2V98.3z"/>
<path class="st0" d="M330.4,96.4h2.2v12h-2.2V96.4z"/>
<path class="st0" d="M338.6,107.8c-1-0.5-1.7-1.3-2.3-2.2c-0.6-0.9-0.8-2-0.8-3.2c0-1.2,0.3-2.2,0.8-3.2c0.6-0.9,1.3-1.7,2.3-2.2
	s2.1-0.8,3.3-0.8c1.2,0,2.3,0.3,3.3,0.8c1,0.5,1.7,1.3,2.3,2.2c0.6,0.9,0.8,2,0.8,3.2c0,1.2-0.3,2.2-0.8,3.2
	c-0.6,0.9-1.3,1.7-2.3,2.2c-1,0.5-2.1,0.8-3.3,0.8C340.7,108.6,339.6,108.3,338.6,107.8z M344,106.1c0.6-0.4,1.1-0.9,1.5-1.5
	c0.4-0.6,0.5-1.4,0.5-2.2c0-0.8-0.2-1.5-0.5-2.2s-0.9-1.1-1.5-1.5s-1.4-0.5-2.2-0.5c-0.8,0-1.5,0.2-2.2,0.5s-1.1,0.9-1.5,1.5
	c-0.4,0.6-0.5,1.4-0.5,2.2c0,0.8,0.2,1.5,0.5,2.2c0.4,0.6,0.9,1.1,1.5,1.5c0.6,0.4,1.4,0.5,2.2,0.5
	C342.7,106.6,343.4,106.4,344,106.1z"/>
<path class="st0" d="M361.8,96.4v12h-1.8l-6.6-8.1v8.1h-2.2v-12h1.8l6.6,8.1v-8.1H361.8z"/>
<path class="st0" d="M365.4,96.4h2.2v12h-2.2V96.4z"/>
<path class="st0" d="M381.9,96.4v12h-1.8l-6.6-8.1v8.1h-2.2v-12h1.8l6.6,8.1v-8.1H381.9z"/>
<path class="st0" d="M393.7,102.3h2.1v4.8c-0.6,0.5-1.3,0.9-2.2,1.1c-0.8,0.3-1.7,0.4-2.5,0.4c-1.2,0-2.3-0.3-3.3-0.8
	c-1-0.5-1.7-1.3-2.3-2.2c-0.6-0.9-0.8-2-0.8-3.2c0-1.2,0.3-2.2,0.8-3.2c0.6-0.9,1.3-1.7,2.3-2.2c1-0.5,2.1-0.8,3.3-0.8
	c1,0,1.9,0.2,2.7,0.5c0.8,0.3,1.5,0.8,2.1,1.5l-1.4,1.4c-0.9-0.9-2-1.4-3.3-1.4c-0.8,0-1.6,0.2-2.2,0.5c-0.7,0.4-1.2,0.8-1.5,1.5
	c-0.4,0.6-0.6,1.4-0.6,2.2c0,0.8,0.2,1.5,0.6,2.2c0.4,0.6,0.9,1.1,1.5,1.5c0.7,0.4,1.4,0.5,2.2,0.5c0.9,0,1.8-0.2,2.5-0.6V102.3z"/>
</svg>
